M48
;DRILL file {KiCad (5.0.2)-1} date 3. 4. 2019 21:48:32
;FORMAT={-:-/ absolute / metric / decimal}
FMAT,2
METRIC,TZ
T1C0.400
T2C1.000
T3C2.200
%
G90
G05
T1
X90.551Y-94.869
X95.504Y-82.931
X96.012Y-90.888
X96.063Y-76.962
X97.282Y-82.804
X100.609Y-98.908
X100.965Y-92.837
X103.251Y-76.454
X104.591Y-102.87
X105.156Y-75.819
X105.41Y-90.805
X105.791Y-84.709
X105.791Y-86.614
X106.184Y-88.888
X109.728Y-92.456
X112.141Y-101.981
X113.157Y-93.218
X113.919Y-103.291
T2
X98.806Y-68.58
X101.346Y-68.58
X103.886Y-68.58
X106.426Y-68.58
X108.966Y-68.58
X111.506Y-68.58
X113.157Y-73.152
X113.157Y-75.692
X113.157Y-78.232
X113.157Y-80.772
X113.157Y-83.312
X113.157Y-85.852
X113.157Y-88.392
X113.157Y-90.932
X95.758Y-110.363
X88.773Y-78.994
X88.773Y-81.534
X88.773Y-84.074
X88.773Y-86.614
X88.773Y-89.154
X101.092Y-110.236
T3
X89.281Y-69.596
T0
M30
