G04 #@! TF.GenerationSoftware,KiCad,Pcbnew,(5.0.2)-1*
G04 #@! TF.CreationDate,2019-04-03T21:48:48+02:00*
G04 #@! TF.ProjectId,ESP12,45535031-322e-46b6-9963-61645f706362,rev?*
G04 #@! TF.SameCoordinates,Original*
G04 #@! TF.FileFunction,Soldermask,Bot*
G04 #@! TF.FilePolarity,Negative*
%FSLAX46Y46*%
G04 Gerber Fmt 4.6, Leading zero omitted, Abs format (unit mm)*
G04 Created by KiCad (PCBNEW (5.0.2)-1) date 3. 4. 2019 21:48:48*
%MOMM*%
%LPD*%
G01*
G04 APERTURE LIST*
%ADD10C,0.100000*%
G04 APERTURE END LIST*
D10*
G36*
X96659000Y-111264000D02*
X94857000Y-111264000D01*
X94857000Y-109462000D01*
X96659000Y-109462000D01*
X96659000Y-111264000D01*
X96659000Y-111264000D01*
G37*
G36*
X101993000Y-111137000D02*
X100191000Y-111137000D01*
X100191000Y-109335000D01*
X101993000Y-109335000D01*
X101993000Y-111137000D01*
X101993000Y-111137000D01*
G37*
G36*
X114058000Y-91833000D02*
X112256000Y-91833000D01*
X112256000Y-90031000D01*
X114058000Y-90031000D01*
X114058000Y-91833000D01*
X114058000Y-91833000D01*
G37*
G36*
X103757591Y-90346085D02*
X103791569Y-90356393D01*
X103822887Y-90373133D01*
X103850339Y-90395661D01*
X103872867Y-90423113D01*
X103889607Y-90454431D01*
X103899915Y-90488409D01*
X103904000Y-90529890D01*
X103904000Y-91131110D01*
X103899915Y-91172591D01*
X103889607Y-91206569D01*
X103872867Y-91237887D01*
X103850339Y-91265339D01*
X103822887Y-91287867D01*
X103791569Y-91304607D01*
X103757591Y-91314915D01*
X103716110Y-91319000D01*
X103039890Y-91319000D01*
X102998409Y-91314915D01*
X102964431Y-91304607D01*
X102933113Y-91287867D01*
X102905661Y-91265339D01*
X102883133Y-91237887D01*
X102866393Y-91206569D01*
X102856085Y-91172591D01*
X102852000Y-91131110D01*
X102852000Y-90529890D01*
X102856085Y-90488409D01*
X102866393Y-90454431D01*
X102883133Y-90423113D01*
X102905661Y-90395661D01*
X102933113Y-90373133D01*
X102964431Y-90356393D01*
X102998409Y-90346085D01*
X103039890Y-90342000D01*
X103716110Y-90342000D01*
X103757591Y-90346085D01*
X103757591Y-90346085D01*
G37*
G36*
X88883443Y-88259519D02*
X88949627Y-88266037D01*
X89062853Y-88300384D01*
X89119467Y-88317557D01*
X89258087Y-88391652D01*
X89275991Y-88401222D01*
X89311729Y-88430552D01*
X89413186Y-88513814D01*
X89496448Y-88615271D01*
X89525778Y-88651009D01*
X89525779Y-88651011D01*
X89609443Y-88807533D01*
X89626616Y-88864147D01*
X89660963Y-88977373D01*
X89678359Y-89154000D01*
X89660963Y-89330627D01*
X89626616Y-89443853D01*
X89609443Y-89500467D01*
X89559865Y-89593220D01*
X89525778Y-89656991D01*
X89520939Y-89662887D01*
X89413186Y-89794186D01*
X89311729Y-89877448D01*
X89275991Y-89906778D01*
X89275989Y-89906779D01*
X89119467Y-89990443D01*
X89062853Y-90007616D01*
X88949627Y-90041963D01*
X88883443Y-90048481D01*
X88817260Y-90055000D01*
X88728740Y-90055000D01*
X88662557Y-90048481D01*
X88596373Y-90041963D01*
X88483147Y-90007616D01*
X88426533Y-89990443D01*
X88270011Y-89906779D01*
X88270009Y-89906778D01*
X88234271Y-89877448D01*
X88132814Y-89794186D01*
X88025061Y-89662887D01*
X88020222Y-89656991D01*
X87986135Y-89593220D01*
X87936557Y-89500467D01*
X87919384Y-89443853D01*
X87885037Y-89330627D01*
X87867641Y-89154000D01*
X87885037Y-88977373D01*
X87919384Y-88864147D01*
X87936557Y-88807533D01*
X88020221Y-88651011D01*
X88020222Y-88651009D01*
X88049552Y-88615271D01*
X88132814Y-88513814D01*
X88234271Y-88430552D01*
X88270009Y-88401222D01*
X88287913Y-88391652D01*
X88426533Y-88317557D01*
X88483147Y-88300384D01*
X88596373Y-88266037D01*
X88662557Y-88259519D01*
X88728740Y-88253000D01*
X88817260Y-88253000D01*
X88883443Y-88259519D01*
X88883443Y-88259519D01*
G37*
G36*
X103757591Y-88771085D02*
X103791569Y-88781393D01*
X103822887Y-88798133D01*
X103850339Y-88820661D01*
X103872867Y-88848113D01*
X103889607Y-88879431D01*
X103899915Y-88913409D01*
X103904000Y-88954890D01*
X103904000Y-89556110D01*
X103899915Y-89597591D01*
X103889607Y-89631569D01*
X103872867Y-89662887D01*
X103850339Y-89690339D01*
X103822887Y-89712867D01*
X103791569Y-89729607D01*
X103757591Y-89739915D01*
X103716110Y-89744000D01*
X103039890Y-89744000D01*
X102998409Y-89739915D01*
X102964431Y-89729607D01*
X102933113Y-89712867D01*
X102905661Y-89690339D01*
X102883133Y-89662887D01*
X102866393Y-89631569D01*
X102856085Y-89597591D01*
X102852000Y-89556110D01*
X102852000Y-88954890D01*
X102856085Y-88913409D01*
X102866393Y-88879431D01*
X102883133Y-88848113D01*
X102905661Y-88820661D01*
X102933113Y-88798133D01*
X102964431Y-88781393D01*
X102998409Y-88771085D01*
X103039890Y-88767000D01*
X103716110Y-88767000D01*
X103757591Y-88771085D01*
X103757591Y-88771085D01*
G37*
G36*
X113267443Y-87497519D02*
X113333627Y-87504037D01*
X113446853Y-87538384D01*
X113503467Y-87555557D01*
X113642087Y-87629652D01*
X113659991Y-87639222D01*
X113695729Y-87668552D01*
X113797186Y-87751814D01*
X113880448Y-87853271D01*
X113909778Y-87889009D01*
X113909779Y-87889011D01*
X113993443Y-88045533D01*
X113993443Y-88045534D01*
X114044963Y-88215373D01*
X114062359Y-88392000D01*
X114044963Y-88568627D01*
X114019973Y-88651009D01*
X113993443Y-88738467D01*
X113934835Y-88848113D01*
X113909778Y-88894991D01*
X113891075Y-88917780D01*
X113797186Y-89032186D01*
X113695729Y-89115448D01*
X113659991Y-89144778D01*
X113659989Y-89144779D01*
X113503467Y-89228443D01*
X113446853Y-89245616D01*
X113333627Y-89279963D01*
X113267443Y-89286481D01*
X113201260Y-89293000D01*
X113112740Y-89293000D01*
X113046557Y-89286481D01*
X112980373Y-89279963D01*
X112867147Y-89245616D01*
X112810533Y-89228443D01*
X112654011Y-89144779D01*
X112654009Y-89144778D01*
X112618271Y-89115448D01*
X112516814Y-89032186D01*
X112422925Y-88917780D01*
X112404222Y-88894991D01*
X112379165Y-88848113D01*
X112320557Y-88738467D01*
X112294027Y-88651009D01*
X112269037Y-88568627D01*
X112251641Y-88392000D01*
X112269037Y-88215373D01*
X112320557Y-88045534D01*
X112320557Y-88045533D01*
X112404221Y-87889011D01*
X112404222Y-87889009D01*
X112433552Y-87853271D01*
X112516814Y-87751814D01*
X112618271Y-87668552D01*
X112654009Y-87639222D01*
X112671913Y-87629652D01*
X112810533Y-87555557D01*
X112867147Y-87538384D01*
X112980373Y-87504037D01*
X113046557Y-87497519D01*
X113112740Y-87491000D01*
X113201260Y-87491000D01*
X113267443Y-87497519D01*
X113267443Y-87497519D01*
G37*
G36*
X88883443Y-85719519D02*
X88949627Y-85726037D01*
X89062853Y-85760384D01*
X89119467Y-85777557D01*
X89258087Y-85851652D01*
X89275991Y-85861222D01*
X89311729Y-85890552D01*
X89413186Y-85973814D01*
X89496448Y-86075271D01*
X89525778Y-86111009D01*
X89525779Y-86111011D01*
X89609443Y-86267533D01*
X89609443Y-86267534D01*
X89660963Y-86437373D01*
X89678359Y-86614000D01*
X89660963Y-86790627D01*
X89629074Y-86895750D01*
X89609443Y-86960467D01*
X89551718Y-87068461D01*
X89525778Y-87116991D01*
X89510746Y-87135307D01*
X89413186Y-87254186D01*
X89311729Y-87337448D01*
X89275991Y-87366778D01*
X89275989Y-87366779D01*
X89119467Y-87450443D01*
X89062853Y-87467616D01*
X88949627Y-87501963D01*
X88883443Y-87508481D01*
X88817260Y-87515000D01*
X88728740Y-87515000D01*
X88662557Y-87508481D01*
X88596373Y-87501963D01*
X88483147Y-87467616D01*
X88426533Y-87450443D01*
X88270011Y-87366779D01*
X88270009Y-87366778D01*
X88234271Y-87337448D01*
X88132814Y-87254186D01*
X88035254Y-87135307D01*
X88020222Y-87116991D01*
X87994282Y-87068461D01*
X87936557Y-86960467D01*
X87916926Y-86895750D01*
X87885037Y-86790627D01*
X87867641Y-86614000D01*
X87885037Y-86437373D01*
X87936557Y-86267534D01*
X87936557Y-86267533D01*
X88020221Y-86111011D01*
X88020222Y-86111009D01*
X88049552Y-86075271D01*
X88132814Y-85973814D01*
X88234271Y-85890552D01*
X88270009Y-85861222D01*
X88287913Y-85851652D01*
X88426533Y-85777557D01*
X88483147Y-85760384D01*
X88596373Y-85726037D01*
X88662557Y-85719519D01*
X88728740Y-85713000D01*
X88817260Y-85713000D01*
X88883443Y-85719519D01*
X88883443Y-85719519D01*
G37*
G36*
X101332591Y-86092085D02*
X101366569Y-86102393D01*
X101397887Y-86119133D01*
X101425339Y-86141661D01*
X101447867Y-86169113D01*
X101464607Y-86200431D01*
X101474915Y-86234409D01*
X101479000Y-86275890D01*
X101479000Y-86952110D01*
X101474915Y-86993591D01*
X101464607Y-87027569D01*
X101447867Y-87058887D01*
X101425339Y-87086339D01*
X101397887Y-87108867D01*
X101366569Y-87125607D01*
X101332591Y-87135915D01*
X101291110Y-87140000D01*
X100689890Y-87140000D01*
X100648409Y-87135915D01*
X100614431Y-87125607D01*
X100583113Y-87108867D01*
X100555661Y-87086339D01*
X100533133Y-87058887D01*
X100516393Y-87027569D01*
X100506085Y-86993591D01*
X100502000Y-86952110D01*
X100502000Y-86275890D01*
X100506085Y-86234409D01*
X100516393Y-86200431D01*
X100533133Y-86169113D01*
X100555661Y-86141661D01*
X100583113Y-86119133D01*
X100614431Y-86102393D01*
X100648409Y-86092085D01*
X100689890Y-86088000D01*
X101291110Y-86088000D01*
X101332591Y-86092085D01*
X101332591Y-86092085D01*
G37*
G36*
X99757591Y-86092085D02*
X99791569Y-86102393D01*
X99822887Y-86119133D01*
X99850339Y-86141661D01*
X99872867Y-86169113D01*
X99889607Y-86200431D01*
X99899915Y-86234409D01*
X99904000Y-86275890D01*
X99904000Y-86952110D01*
X99899915Y-86993591D01*
X99889607Y-87027569D01*
X99872867Y-87058887D01*
X99850339Y-87086339D01*
X99822887Y-87108867D01*
X99791569Y-87125607D01*
X99757591Y-87135915D01*
X99716110Y-87140000D01*
X99114890Y-87140000D01*
X99073409Y-87135915D01*
X99039431Y-87125607D01*
X99008113Y-87108867D01*
X98980661Y-87086339D01*
X98958133Y-87058887D01*
X98941393Y-87027569D01*
X98931085Y-86993591D01*
X98927000Y-86952110D01*
X98927000Y-86275890D01*
X98931085Y-86234409D01*
X98941393Y-86200431D01*
X98958133Y-86169113D01*
X98980661Y-86141661D01*
X99008113Y-86119133D01*
X99039431Y-86102393D01*
X99073409Y-86092085D01*
X99114890Y-86088000D01*
X99716110Y-86088000D01*
X99757591Y-86092085D01*
X99757591Y-86092085D01*
G37*
G36*
X113267442Y-84957518D02*
X113333627Y-84964037D01*
X113421688Y-84990750D01*
X113503467Y-85015557D01*
X113640102Y-85088591D01*
X113659991Y-85099222D01*
X113688439Y-85122569D01*
X113797186Y-85211814D01*
X113880448Y-85313271D01*
X113909778Y-85349009D01*
X113909779Y-85349011D01*
X113993443Y-85505533D01*
X113993443Y-85505534D01*
X114044963Y-85675373D01*
X114062359Y-85852000D01*
X114044963Y-86028627D01*
X114019973Y-86111009D01*
X113993443Y-86198467D01*
X113992393Y-86200431D01*
X113909778Y-86354991D01*
X113880448Y-86390729D01*
X113797186Y-86492186D01*
X113695729Y-86575448D01*
X113659991Y-86604778D01*
X113659989Y-86604779D01*
X113503467Y-86688443D01*
X113446853Y-86705616D01*
X113333627Y-86739963D01*
X113267443Y-86746481D01*
X113201260Y-86753000D01*
X113112740Y-86753000D01*
X113046557Y-86746481D01*
X112980373Y-86739963D01*
X112867147Y-86705616D01*
X112810533Y-86688443D01*
X112654011Y-86604779D01*
X112654009Y-86604778D01*
X112618271Y-86575448D01*
X112516814Y-86492186D01*
X112433552Y-86390729D01*
X112404222Y-86354991D01*
X112321607Y-86200431D01*
X112320557Y-86198467D01*
X112294027Y-86111009D01*
X112269037Y-86028627D01*
X112251641Y-85852000D01*
X112269037Y-85675373D01*
X112320557Y-85505534D01*
X112320557Y-85505533D01*
X112404221Y-85349011D01*
X112404222Y-85349009D01*
X112433552Y-85313271D01*
X112516814Y-85211814D01*
X112625561Y-85122569D01*
X112654009Y-85099222D01*
X112673898Y-85088591D01*
X112810533Y-85015557D01*
X112892312Y-84990750D01*
X112980373Y-84964037D01*
X113046558Y-84957518D01*
X113112740Y-84951000D01*
X113201260Y-84951000D01*
X113267442Y-84957518D01*
X113267442Y-84957518D01*
G37*
G36*
X101332591Y-84187085D02*
X101366569Y-84197393D01*
X101397887Y-84214133D01*
X101425339Y-84236661D01*
X101447867Y-84264113D01*
X101464607Y-84295431D01*
X101474915Y-84329409D01*
X101479000Y-84370890D01*
X101479000Y-85047110D01*
X101474915Y-85088591D01*
X101464607Y-85122569D01*
X101447867Y-85153887D01*
X101425339Y-85181339D01*
X101397887Y-85203867D01*
X101366569Y-85220607D01*
X101332591Y-85230915D01*
X101291110Y-85235000D01*
X100689890Y-85235000D01*
X100648409Y-85230915D01*
X100614431Y-85220607D01*
X100583113Y-85203867D01*
X100555661Y-85181339D01*
X100533133Y-85153887D01*
X100516393Y-85122569D01*
X100506085Y-85088591D01*
X100502000Y-85047110D01*
X100502000Y-84370890D01*
X100506085Y-84329409D01*
X100516393Y-84295431D01*
X100533133Y-84264113D01*
X100555661Y-84236661D01*
X100583113Y-84214133D01*
X100614431Y-84197393D01*
X100648409Y-84187085D01*
X100689890Y-84183000D01*
X101291110Y-84183000D01*
X101332591Y-84187085D01*
X101332591Y-84187085D01*
G37*
G36*
X99757591Y-84187085D02*
X99791569Y-84197393D01*
X99822887Y-84214133D01*
X99850339Y-84236661D01*
X99872867Y-84264113D01*
X99889607Y-84295431D01*
X99899915Y-84329409D01*
X99904000Y-84370890D01*
X99904000Y-85047110D01*
X99899915Y-85088591D01*
X99889607Y-85122569D01*
X99872867Y-85153887D01*
X99850339Y-85181339D01*
X99822887Y-85203867D01*
X99791569Y-85220607D01*
X99757591Y-85230915D01*
X99716110Y-85235000D01*
X99114890Y-85235000D01*
X99073409Y-85230915D01*
X99039431Y-85220607D01*
X99008113Y-85203867D01*
X98980661Y-85181339D01*
X98958133Y-85153887D01*
X98941393Y-85122569D01*
X98931085Y-85088591D01*
X98927000Y-85047110D01*
X98927000Y-84370890D01*
X98931085Y-84329409D01*
X98941393Y-84295431D01*
X98958133Y-84264113D01*
X98980661Y-84236661D01*
X99008113Y-84214133D01*
X99039431Y-84197393D01*
X99073409Y-84187085D01*
X99114890Y-84183000D01*
X99716110Y-84183000D01*
X99757591Y-84187085D01*
X99757591Y-84187085D01*
G37*
G36*
X88883442Y-83179518D02*
X88949627Y-83186037D01*
X89062853Y-83220384D01*
X89119467Y-83237557D01*
X89258087Y-83311652D01*
X89275991Y-83321222D01*
X89311729Y-83350552D01*
X89413186Y-83433814D01*
X89496448Y-83535271D01*
X89525778Y-83571009D01*
X89525779Y-83571011D01*
X89609443Y-83727533D01*
X89609443Y-83727534D01*
X89660963Y-83897373D01*
X89678359Y-84074000D01*
X89660963Y-84250627D01*
X89647372Y-84295431D01*
X89609443Y-84420467D01*
X89605817Y-84427250D01*
X89525778Y-84576991D01*
X89496448Y-84612729D01*
X89413186Y-84714186D01*
X89311729Y-84797448D01*
X89275991Y-84826778D01*
X89275989Y-84826779D01*
X89119467Y-84910443D01*
X89062853Y-84927616D01*
X88949627Y-84961963D01*
X88883442Y-84968482D01*
X88817260Y-84975000D01*
X88728740Y-84975000D01*
X88662558Y-84968482D01*
X88596373Y-84961963D01*
X88483147Y-84927616D01*
X88426533Y-84910443D01*
X88270011Y-84826779D01*
X88270009Y-84826778D01*
X88234271Y-84797448D01*
X88132814Y-84714186D01*
X88049552Y-84612729D01*
X88020222Y-84576991D01*
X87940183Y-84427250D01*
X87936557Y-84420467D01*
X87898628Y-84295431D01*
X87885037Y-84250627D01*
X87867641Y-84074000D01*
X87885037Y-83897373D01*
X87936557Y-83727534D01*
X87936557Y-83727533D01*
X88020221Y-83571011D01*
X88020222Y-83571009D01*
X88049552Y-83535271D01*
X88132814Y-83433814D01*
X88234271Y-83350552D01*
X88270009Y-83321222D01*
X88287913Y-83311652D01*
X88426533Y-83237557D01*
X88483147Y-83220384D01*
X88596373Y-83186037D01*
X88662558Y-83179518D01*
X88728740Y-83173000D01*
X88817260Y-83173000D01*
X88883442Y-83179518D01*
X88883442Y-83179518D01*
G37*
G36*
X113267443Y-82417519D02*
X113333627Y-82424037D01*
X113446853Y-82458384D01*
X113503467Y-82475557D01*
X113642087Y-82549652D01*
X113659991Y-82559222D01*
X113695729Y-82588552D01*
X113797186Y-82671814D01*
X113880448Y-82773271D01*
X113909778Y-82809009D01*
X113909779Y-82809011D01*
X113993443Y-82965533D01*
X113993443Y-82965534D01*
X114044963Y-83135373D01*
X114062359Y-83312000D01*
X114044963Y-83488627D01*
X114019973Y-83571009D01*
X113993443Y-83658467D01*
X113956526Y-83727533D01*
X113909778Y-83814991D01*
X113880448Y-83850729D01*
X113797186Y-83952186D01*
X113695729Y-84035448D01*
X113659991Y-84064778D01*
X113659989Y-84064779D01*
X113503467Y-84148443D01*
X113446853Y-84165616D01*
X113333627Y-84199963D01*
X113267442Y-84206482D01*
X113201260Y-84213000D01*
X113112740Y-84213000D01*
X113046558Y-84206482D01*
X112980373Y-84199963D01*
X112867147Y-84165616D01*
X112810533Y-84148443D01*
X112654011Y-84064779D01*
X112654009Y-84064778D01*
X112618271Y-84035448D01*
X112516814Y-83952186D01*
X112433552Y-83850729D01*
X112404222Y-83814991D01*
X112357474Y-83727533D01*
X112320557Y-83658467D01*
X112294027Y-83571009D01*
X112269037Y-83488627D01*
X112251641Y-83312000D01*
X112269037Y-83135373D01*
X112320557Y-82965534D01*
X112320557Y-82965533D01*
X112404221Y-82809011D01*
X112404222Y-82809009D01*
X112433552Y-82773271D01*
X112516814Y-82671814D01*
X112618271Y-82588552D01*
X112654009Y-82559222D01*
X112671913Y-82549652D01*
X112810533Y-82475557D01*
X112867147Y-82458384D01*
X112980373Y-82424037D01*
X113046557Y-82417519D01*
X113112740Y-82411000D01*
X113201260Y-82411000D01*
X113267443Y-82417519D01*
X113267443Y-82417519D01*
G37*
G36*
X101307091Y-82155085D02*
X101341069Y-82165393D01*
X101372387Y-82182133D01*
X101399839Y-82204661D01*
X101422367Y-82232113D01*
X101439107Y-82263431D01*
X101449415Y-82297409D01*
X101453500Y-82338890D01*
X101453500Y-83015110D01*
X101449415Y-83056591D01*
X101439107Y-83090569D01*
X101422367Y-83121887D01*
X101399839Y-83149339D01*
X101372387Y-83171867D01*
X101341069Y-83188607D01*
X101307091Y-83198915D01*
X101265610Y-83203000D01*
X100664390Y-83203000D01*
X100622909Y-83198915D01*
X100588931Y-83188607D01*
X100557613Y-83171867D01*
X100530161Y-83149339D01*
X100507633Y-83121887D01*
X100490893Y-83090569D01*
X100480585Y-83056591D01*
X100476500Y-83015110D01*
X100476500Y-82338890D01*
X100480585Y-82297409D01*
X100490893Y-82263431D01*
X100507633Y-82232113D01*
X100530161Y-82204661D01*
X100557613Y-82182133D01*
X100588931Y-82165393D01*
X100622909Y-82155085D01*
X100664390Y-82151000D01*
X101265610Y-82151000D01*
X101307091Y-82155085D01*
X101307091Y-82155085D01*
G37*
G36*
X99732091Y-82155085D02*
X99766069Y-82165393D01*
X99797387Y-82182133D01*
X99824839Y-82204661D01*
X99847367Y-82232113D01*
X99864107Y-82263431D01*
X99874415Y-82297409D01*
X99878500Y-82338890D01*
X99878500Y-83015110D01*
X99874415Y-83056591D01*
X99864107Y-83090569D01*
X99847367Y-83121887D01*
X99824839Y-83149339D01*
X99797387Y-83171867D01*
X99766069Y-83188607D01*
X99732091Y-83198915D01*
X99690610Y-83203000D01*
X99089390Y-83203000D01*
X99047909Y-83198915D01*
X99013931Y-83188607D01*
X98982613Y-83171867D01*
X98955161Y-83149339D01*
X98932633Y-83121887D01*
X98915893Y-83090569D01*
X98905585Y-83056591D01*
X98901500Y-83015110D01*
X98901500Y-82338890D01*
X98905585Y-82297409D01*
X98915893Y-82263431D01*
X98932633Y-82232113D01*
X98955161Y-82204661D01*
X98982613Y-82182133D01*
X99013931Y-82165393D01*
X99047909Y-82155085D01*
X99089390Y-82151000D01*
X99690610Y-82151000D01*
X99732091Y-82155085D01*
X99732091Y-82155085D01*
G37*
G36*
X88883443Y-80639519D02*
X88949627Y-80646037D01*
X89062853Y-80680384D01*
X89119467Y-80697557D01*
X89258087Y-80771652D01*
X89275991Y-80781222D01*
X89311729Y-80810552D01*
X89413186Y-80893814D01*
X89496448Y-80995271D01*
X89525778Y-81031009D01*
X89525779Y-81031011D01*
X89609443Y-81187533D01*
X89609443Y-81187534D01*
X89660963Y-81357373D01*
X89678359Y-81534000D01*
X89660963Y-81710627D01*
X89626616Y-81823853D01*
X89609443Y-81880467D01*
X89535348Y-82019087D01*
X89525778Y-82036991D01*
X89496448Y-82072729D01*
X89413186Y-82174186D01*
X89311729Y-82257448D01*
X89275991Y-82286778D01*
X89275989Y-82286779D01*
X89119467Y-82370443D01*
X89062853Y-82387616D01*
X88949627Y-82421963D01*
X88883443Y-82428481D01*
X88817260Y-82435000D01*
X88728740Y-82435000D01*
X88662557Y-82428481D01*
X88596373Y-82421963D01*
X88483147Y-82387616D01*
X88426533Y-82370443D01*
X88270011Y-82286779D01*
X88270009Y-82286778D01*
X88234271Y-82257448D01*
X88132814Y-82174186D01*
X88049552Y-82072729D01*
X88020222Y-82036991D01*
X88010652Y-82019087D01*
X87936557Y-81880467D01*
X87919384Y-81823853D01*
X87885037Y-81710627D01*
X87867641Y-81534000D01*
X87885037Y-81357373D01*
X87936557Y-81187534D01*
X87936557Y-81187533D01*
X88020221Y-81031011D01*
X88020222Y-81031009D01*
X88049552Y-80995271D01*
X88132814Y-80893814D01*
X88234271Y-80810552D01*
X88270009Y-80781222D01*
X88287913Y-80771652D01*
X88426533Y-80697557D01*
X88483147Y-80680384D01*
X88596373Y-80646037D01*
X88662557Y-80639519D01*
X88728740Y-80633000D01*
X88817260Y-80633000D01*
X88883443Y-80639519D01*
X88883443Y-80639519D01*
G37*
G36*
X113267442Y-79877518D02*
X113333627Y-79884037D01*
X113446853Y-79918384D01*
X113503467Y-79935557D01*
X113642087Y-80009652D01*
X113659991Y-80019222D01*
X113695729Y-80048552D01*
X113797186Y-80131814D01*
X113870148Y-80220720D01*
X113909778Y-80269009D01*
X113909779Y-80269011D01*
X113993443Y-80425533D01*
X113993443Y-80425534D01*
X114044963Y-80595373D01*
X114062359Y-80772000D01*
X114044963Y-80948627D01*
X114019973Y-81031009D01*
X113993443Y-81118467D01*
X113956526Y-81187533D01*
X113909778Y-81274991D01*
X113880448Y-81310729D01*
X113797186Y-81412186D01*
X113695729Y-81495448D01*
X113659991Y-81524778D01*
X113659989Y-81524779D01*
X113503467Y-81608443D01*
X113446853Y-81625616D01*
X113333627Y-81659963D01*
X113267442Y-81666482D01*
X113201260Y-81673000D01*
X113112740Y-81673000D01*
X113046558Y-81666482D01*
X112980373Y-81659963D01*
X112867147Y-81625616D01*
X112810533Y-81608443D01*
X112654011Y-81524779D01*
X112654009Y-81524778D01*
X112618271Y-81495448D01*
X112516814Y-81412186D01*
X112433552Y-81310729D01*
X112404222Y-81274991D01*
X112357474Y-81187533D01*
X112320557Y-81118467D01*
X112294027Y-81031009D01*
X112269037Y-80948627D01*
X112251641Y-80772000D01*
X112269037Y-80595373D01*
X112320557Y-80425534D01*
X112320557Y-80425533D01*
X112404221Y-80269011D01*
X112404222Y-80269009D01*
X112443852Y-80220720D01*
X112516814Y-80131814D01*
X112618271Y-80048552D01*
X112654009Y-80019222D01*
X112671913Y-80009652D01*
X112810533Y-79935557D01*
X112867147Y-79918384D01*
X112980373Y-79884037D01*
X113046558Y-79877518D01*
X113112740Y-79871000D01*
X113201260Y-79871000D01*
X113267442Y-79877518D01*
X113267442Y-79877518D01*
G37*
G36*
X101332591Y-79488085D02*
X101366569Y-79498393D01*
X101397887Y-79515133D01*
X101425339Y-79537661D01*
X101447867Y-79565113D01*
X101464607Y-79596431D01*
X101474915Y-79630409D01*
X101479000Y-79671890D01*
X101479000Y-80348110D01*
X101474915Y-80389591D01*
X101464607Y-80423569D01*
X101447867Y-80454887D01*
X101425339Y-80482339D01*
X101397887Y-80504867D01*
X101366569Y-80521607D01*
X101332591Y-80531915D01*
X101291110Y-80536000D01*
X100689890Y-80536000D01*
X100648409Y-80531915D01*
X100614431Y-80521607D01*
X100583113Y-80504867D01*
X100555661Y-80482339D01*
X100533133Y-80454887D01*
X100516393Y-80423569D01*
X100506085Y-80389591D01*
X100502000Y-80348110D01*
X100502000Y-79671890D01*
X100506085Y-79630409D01*
X100516393Y-79596431D01*
X100533133Y-79565113D01*
X100555661Y-79537661D01*
X100583113Y-79515133D01*
X100614431Y-79498393D01*
X100648409Y-79488085D01*
X100689890Y-79484000D01*
X101291110Y-79484000D01*
X101332591Y-79488085D01*
X101332591Y-79488085D01*
G37*
G36*
X99757591Y-79488085D02*
X99791569Y-79498393D01*
X99822887Y-79515133D01*
X99850339Y-79537661D01*
X99872867Y-79565113D01*
X99889607Y-79596431D01*
X99899915Y-79630409D01*
X99904000Y-79671890D01*
X99904000Y-80348110D01*
X99899915Y-80389591D01*
X99889607Y-80423569D01*
X99872867Y-80454887D01*
X99850339Y-80482339D01*
X99822887Y-80504867D01*
X99791569Y-80521607D01*
X99757591Y-80531915D01*
X99716110Y-80536000D01*
X99114890Y-80536000D01*
X99073409Y-80531915D01*
X99039431Y-80521607D01*
X99008113Y-80504867D01*
X98980661Y-80482339D01*
X98958133Y-80454887D01*
X98941393Y-80423569D01*
X98931085Y-80389591D01*
X98927000Y-80348110D01*
X98927000Y-79671890D01*
X98931085Y-79630409D01*
X98941393Y-79596431D01*
X98958133Y-79565113D01*
X98980661Y-79537661D01*
X99008113Y-79515133D01*
X99039431Y-79498393D01*
X99073409Y-79488085D01*
X99114890Y-79484000D01*
X99716110Y-79484000D01*
X99757591Y-79488085D01*
X99757591Y-79488085D01*
G37*
G36*
X103376591Y-79398585D02*
X103410569Y-79408893D01*
X103441887Y-79425633D01*
X103469339Y-79448161D01*
X103491867Y-79475613D01*
X103508607Y-79506931D01*
X103518915Y-79540909D01*
X103523000Y-79582390D01*
X103523000Y-80183610D01*
X103518915Y-80225091D01*
X103508607Y-80259069D01*
X103491867Y-80290387D01*
X103469339Y-80317839D01*
X103441887Y-80340367D01*
X103410569Y-80357107D01*
X103376591Y-80367415D01*
X103335110Y-80371500D01*
X102658890Y-80371500D01*
X102617409Y-80367415D01*
X102583431Y-80357107D01*
X102552113Y-80340367D01*
X102524661Y-80317839D01*
X102502133Y-80290387D01*
X102485393Y-80259069D01*
X102475085Y-80225091D01*
X102471000Y-80183610D01*
X102471000Y-79582390D01*
X102475085Y-79540909D01*
X102485393Y-79506931D01*
X102502133Y-79475613D01*
X102524661Y-79448161D01*
X102552113Y-79425633D01*
X102583431Y-79408893D01*
X102617409Y-79398585D01*
X102658890Y-79394500D01*
X103335110Y-79394500D01*
X103376591Y-79398585D01*
X103376591Y-79398585D01*
G37*
G36*
X89674000Y-79895000D02*
X87872000Y-79895000D01*
X87872000Y-78093000D01*
X89674000Y-78093000D01*
X89674000Y-79895000D01*
X89674000Y-79895000D01*
G37*
G36*
X113267442Y-77337518D02*
X113333627Y-77344037D01*
X113446853Y-77378384D01*
X113503467Y-77395557D01*
X113642087Y-77469652D01*
X113659991Y-77479222D01*
X113695729Y-77508552D01*
X113797186Y-77591814D01*
X113880448Y-77693271D01*
X113909778Y-77729009D01*
X113909779Y-77729011D01*
X113993443Y-77885533D01*
X113993443Y-77885534D01*
X114044963Y-78055373D01*
X114062359Y-78232000D01*
X114044963Y-78408627D01*
X114013074Y-78513750D01*
X113993443Y-78578467D01*
X113936997Y-78684069D01*
X113909778Y-78734991D01*
X113894746Y-78753307D01*
X113797186Y-78872186D01*
X113695729Y-78955448D01*
X113659991Y-78984778D01*
X113659989Y-78984779D01*
X113503467Y-79068443D01*
X113446853Y-79085616D01*
X113333627Y-79119963D01*
X113267442Y-79126482D01*
X113201260Y-79133000D01*
X113112740Y-79133000D01*
X113046558Y-79126482D01*
X112980373Y-79119963D01*
X112867147Y-79085616D01*
X112810533Y-79068443D01*
X112654011Y-78984779D01*
X112654009Y-78984778D01*
X112618271Y-78955448D01*
X112516814Y-78872186D01*
X112419254Y-78753307D01*
X112404222Y-78734991D01*
X112377003Y-78684069D01*
X112320557Y-78578467D01*
X112300926Y-78513750D01*
X112269037Y-78408627D01*
X112251641Y-78232000D01*
X112269037Y-78055373D01*
X112320557Y-77885534D01*
X112320557Y-77885533D01*
X112404221Y-77729011D01*
X112404222Y-77729009D01*
X112433552Y-77693271D01*
X112516814Y-77591814D01*
X112618271Y-77508552D01*
X112654009Y-77479222D01*
X112671913Y-77469652D01*
X112810533Y-77395557D01*
X112867147Y-77378384D01*
X112980373Y-77344037D01*
X113046558Y-77337518D01*
X113112740Y-77331000D01*
X113201260Y-77331000D01*
X113267442Y-77337518D01*
X113267442Y-77337518D01*
G37*
G36*
X103376591Y-77823585D02*
X103410569Y-77833893D01*
X103441887Y-77850633D01*
X103469339Y-77873161D01*
X103491867Y-77900613D01*
X103508607Y-77931931D01*
X103518915Y-77965909D01*
X103523000Y-78007390D01*
X103523000Y-78608610D01*
X103518915Y-78650091D01*
X103508607Y-78684069D01*
X103491867Y-78715387D01*
X103469339Y-78742839D01*
X103441887Y-78765367D01*
X103410569Y-78782107D01*
X103376591Y-78792415D01*
X103335110Y-78796500D01*
X102658890Y-78796500D01*
X102617409Y-78792415D01*
X102583431Y-78782107D01*
X102552113Y-78765367D01*
X102524661Y-78742839D01*
X102502133Y-78715387D01*
X102485393Y-78684069D01*
X102475085Y-78650091D01*
X102471000Y-78608610D01*
X102471000Y-78007390D01*
X102475085Y-77965909D01*
X102485393Y-77931931D01*
X102502133Y-77900613D01*
X102524661Y-77873161D01*
X102552113Y-77850633D01*
X102583431Y-77833893D01*
X102617409Y-77823585D01*
X102658890Y-77819500D01*
X103335110Y-77819500D01*
X103376591Y-77823585D01*
X103376591Y-77823585D01*
G37*
G36*
X101332591Y-77710085D02*
X101366569Y-77720393D01*
X101397887Y-77737133D01*
X101425339Y-77759661D01*
X101447867Y-77787113D01*
X101464607Y-77818431D01*
X101474915Y-77852409D01*
X101479000Y-77893890D01*
X101479000Y-78570110D01*
X101474915Y-78611591D01*
X101464607Y-78645569D01*
X101447867Y-78676887D01*
X101425339Y-78704339D01*
X101397887Y-78726867D01*
X101366569Y-78743607D01*
X101332591Y-78753915D01*
X101291110Y-78758000D01*
X100689890Y-78758000D01*
X100648409Y-78753915D01*
X100614431Y-78743607D01*
X100583113Y-78726867D01*
X100555661Y-78704339D01*
X100533133Y-78676887D01*
X100516393Y-78645569D01*
X100506085Y-78611591D01*
X100502000Y-78570110D01*
X100502000Y-77893890D01*
X100506085Y-77852409D01*
X100516393Y-77818431D01*
X100533133Y-77787113D01*
X100555661Y-77759661D01*
X100583113Y-77737133D01*
X100614431Y-77720393D01*
X100648409Y-77710085D01*
X100689890Y-77706000D01*
X101291110Y-77706000D01*
X101332591Y-77710085D01*
X101332591Y-77710085D01*
G37*
G36*
X99757591Y-77710085D02*
X99791569Y-77720393D01*
X99822887Y-77737133D01*
X99850339Y-77759661D01*
X99872867Y-77787113D01*
X99889607Y-77818431D01*
X99899915Y-77852409D01*
X99904000Y-77893890D01*
X99904000Y-78570110D01*
X99899915Y-78611591D01*
X99889607Y-78645569D01*
X99872867Y-78676887D01*
X99850339Y-78704339D01*
X99822887Y-78726867D01*
X99791569Y-78743607D01*
X99757591Y-78753915D01*
X99716110Y-78758000D01*
X99114890Y-78758000D01*
X99073409Y-78753915D01*
X99039431Y-78743607D01*
X99008113Y-78726867D01*
X98980661Y-78704339D01*
X98958133Y-78676887D01*
X98941393Y-78645569D01*
X98931085Y-78611591D01*
X98927000Y-78570110D01*
X98927000Y-77893890D01*
X98931085Y-77852409D01*
X98941393Y-77818431D01*
X98958133Y-77787113D01*
X98980661Y-77759661D01*
X99008113Y-77737133D01*
X99039431Y-77720393D01*
X99073409Y-77710085D01*
X99114890Y-77706000D01*
X99716110Y-77706000D01*
X99757591Y-77710085D01*
X99757591Y-77710085D01*
G37*
G36*
X101478499Y-75932445D02*
X101515993Y-75943819D01*
X101550557Y-75962294D01*
X101580847Y-75987153D01*
X101605706Y-76017443D01*
X101624181Y-76052007D01*
X101635555Y-76089501D01*
X101640000Y-76134638D01*
X101640000Y-76773362D01*
X101635555Y-76818499D01*
X101624181Y-76855993D01*
X101605706Y-76890557D01*
X101580847Y-76920847D01*
X101550557Y-76945706D01*
X101515993Y-76964181D01*
X101478499Y-76975555D01*
X101433362Y-76980000D01*
X100694638Y-76980000D01*
X100649501Y-76975555D01*
X100612007Y-76964181D01*
X100577443Y-76945706D01*
X100547153Y-76920847D01*
X100522294Y-76890557D01*
X100503819Y-76855993D01*
X100492445Y-76818499D01*
X100488000Y-76773362D01*
X100488000Y-76134638D01*
X100492445Y-76089501D01*
X100503819Y-76052007D01*
X100522294Y-76017443D01*
X100547153Y-75987153D01*
X100577443Y-75962294D01*
X100612007Y-75943819D01*
X100649501Y-75932445D01*
X100694638Y-75928000D01*
X101433362Y-75928000D01*
X101478499Y-75932445D01*
X101478499Y-75932445D01*
G37*
G36*
X99728499Y-75932445D02*
X99765993Y-75943819D01*
X99800557Y-75962294D01*
X99830847Y-75987153D01*
X99855706Y-76017443D01*
X99874181Y-76052007D01*
X99885555Y-76089501D01*
X99890000Y-76134638D01*
X99890000Y-76773362D01*
X99885555Y-76818499D01*
X99874181Y-76855993D01*
X99855706Y-76890557D01*
X99830847Y-76920847D01*
X99800557Y-76945706D01*
X99765993Y-76964181D01*
X99728499Y-76975555D01*
X99683362Y-76980000D01*
X98944638Y-76980000D01*
X98899501Y-76975555D01*
X98862007Y-76964181D01*
X98827443Y-76945706D01*
X98797153Y-76920847D01*
X98772294Y-76890557D01*
X98753819Y-76855993D01*
X98742445Y-76818499D01*
X98738000Y-76773362D01*
X98738000Y-76134638D01*
X98742445Y-76089501D01*
X98753819Y-76052007D01*
X98772294Y-76017443D01*
X98797153Y-75987153D01*
X98827443Y-75962294D01*
X98862007Y-75943819D01*
X98899501Y-75932445D01*
X98944638Y-75928000D01*
X99683362Y-75928000D01*
X99728499Y-75932445D01*
X99728499Y-75932445D01*
G37*
G36*
X113264412Y-74797220D02*
X113333627Y-74804037D01*
X113437574Y-74835569D01*
X113503467Y-74855557D01*
X113599402Y-74906836D01*
X113659991Y-74939222D01*
X113695729Y-74968552D01*
X113797186Y-75051814D01*
X113880448Y-75153271D01*
X113909778Y-75189009D01*
X113909779Y-75189011D01*
X113993443Y-75345533D01*
X113993443Y-75345534D01*
X114044963Y-75515373D01*
X114062359Y-75692000D01*
X114044963Y-75868627D01*
X114022154Y-75943819D01*
X113993443Y-76038467D01*
X113966164Y-76089501D01*
X113909778Y-76194991D01*
X113880448Y-76230729D01*
X113797186Y-76332186D01*
X113695729Y-76415448D01*
X113659991Y-76444778D01*
X113659989Y-76444779D01*
X113503467Y-76528443D01*
X113446853Y-76545616D01*
X113333627Y-76579963D01*
X113267443Y-76586481D01*
X113201260Y-76593000D01*
X113112740Y-76593000D01*
X113046557Y-76586481D01*
X112980373Y-76579963D01*
X112867147Y-76545616D01*
X112810533Y-76528443D01*
X112654011Y-76444779D01*
X112654009Y-76444778D01*
X112618271Y-76415448D01*
X112516814Y-76332186D01*
X112433552Y-76230729D01*
X112404222Y-76194991D01*
X112347836Y-76089501D01*
X112320557Y-76038467D01*
X112291846Y-75943819D01*
X112269037Y-75868627D01*
X112251641Y-75692000D01*
X112269037Y-75515373D01*
X112320557Y-75345534D01*
X112320557Y-75345533D01*
X112404221Y-75189011D01*
X112404222Y-75189009D01*
X112433552Y-75153271D01*
X112516814Y-75051814D01*
X112618271Y-74968552D01*
X112654009Y-74939222D01*
X112714598Y-74906836D01*
X112810533Y-74855557D01*
X112876426Y-74835569D01*
X112980373Y-74804037D01*
X113049588Y-74797220D01*
X113112740Y-74791000D01*
X113201260Y-74791000D01*
X113264412Y-74797220D01*
X113264412Y-74797220D01*
G37*
G36*
X101231091Y-73900085D02*
X101265069Y-73910393D01*
X101296387Y-73927133D01*
X101323839Y-73949661D01*
X101346367Y-73977113D01*
X101363107Y-74008431D01*
X101373415Y-74042409D01*
X101377500Y-74083890D01*
X101377500Y-74760110D01*
X101373415Y-74801591D01*
X101363107Y-74835569D01*
X101346367Y-74866887D01*
X101323839Y-74894339D01*
X101296387Y-74916867D01*
X101265069Y-74933607D01*
X101231091Y-74943915D01*
X101189610Y-74948000D01*
X100588390Y-74948000D01*
X100546909Y-74943915D01*
X100512931Y-74933607D01*
X100481613Y-74916867D01*
X100454161Y-74894339D01*
X100431633Y-74866887D01*
X100414893Y-74835569D01*
X100404585Y-74801591D01*
X100400500Y-74760110D01*
X100400500Y-74083890D01*
X100404585Y-74042409D01*
X100414893Y-74008431D01*
X100431633Y-73977113D01*
X100454161Y-73949661D01*
X100481613Y-73927133D01*
X100512931Y-73910393D01*
X100546909Y-73900085D01*
X100588390Y-73896000D01*
X101189610Y-73896000D01*
X101231091Y-73900085D01*
X101231091Y-73900085D01*
G37*
G36*
X99656091Y-73900085D02*
X99690069Y-73910393D01*
X99721387Y-73927133D01*
X99748839Y-73949661D01*
X99771367Y-73977113D01*
X99788107Y-74008431D01*
X99798415Y-74042409D01*
X99802500Y-74083890D01*
X99802500Y-74760110D01*
X99798415Y-74801591D01*
X99788107Y-74835569D01*
X99771367Y-74866887D01*
X99748839Y-74894339D01*
X99721387Y-74916867D01*
X99690069Y-74933607D01*
X99656091Y-74943915D01*
X99614610Y-74948000D01*
X99013390Y-74948000D01*
X98971909Y-74943915D01*
X98937931Y-74933607D01*
X98906613Y-74916867D01*
X98879161Y-74894339D01*
X98856633Y-74866887D01*
X98839893Y-74835569D01*
X98829585Y-74801591D01*
X98825500Y-74760110D01*
X98825500Y-74083890D01*
X98829585Y-74042409D01*
X98839893Y-74008431D01*
X98856633Y-73977113D01*
X98879161Y-73949661D01*
X98906613Y-73927133D01*
X98937931Y-73910393D01*
X98971909Y-73900085D01*
X99013390Y-73896000D01*
X99614610Y-73896000D01*
X99656091Y-73900085D01*
X99656091Y-73900085D01*
G37*
G36*
X104652000Y-74923000D02*
X103750000Y-74923000D01*
X103750000Y-73921000D01*
X104652000Y-73921000D01*
X104652000Y-74923000D01*
X104652000Y-74923000D01*
G37*
G36*
X97286000Y-74891000D02*
X96384000Y-74891000D01*
X96384000Y-73889000D01*
X97286000Y-73889000D01*
X97286000Y-74891000D01*
X97286000Y-74891000D01*
G37*
G36*
X95386000Y-74891000D02*
X94484000Y-74891000D01*
X94484000Y-73889000D01*
X95386000Y-73889000D01*
X95386000Y-74891000D01*
X95386000Y-74891000D01*
G37*
G36*
X113267443Y-72257519D02*
X113333627Y-72264037D01*
X113446853Y-72298384D01*
X113503467Y-72315557D01*
X113642087Y-72389652D01*
X113659991Y-72399222D01*
X113695729Y-72428552D01*
X113797186Y-72511814D01*
X113880448Y-72613271D01*
X113909778Y-72649009D01*
X113909779Y-72649011D01*
X113993443Y-72805533D01*
X113993443Y-72805534D01*
X114044963Y-72975373D01*
X114062359Y-73152000D01*
X114044963Y-73328627D01*
X114010616Y-73441853D01*
X113993443Y-73498467D01*
X113919348Y-73637087D01*
X113909778Y-73654991D01*
X113880448Y-73690729D01*
X113797186Y-73792186D01*
X113695729Y-73875448D01*
X113659991Y-73904778D01*
X113659989Y-73904779D01*
X113503467Y-73988443D01*
X113450362Y-74004552D01*
X113333627Y-74039963D01*
X113267442Y-74046482D01*
X113201260Y-74053000D01*
X113112740Y-74053000D01*
X113046558Y-74046482D01*
X112980373Y-74039963D01*
X112863638Y-74004552D01*
X112810533Y-73988443D01*
X112654011Y-73904779D01*
X112654009Y-73904778D01*
X112618271Y-73875448D01*
X112516814Y-73792186D01*
X112433552Y-73690729D01*
X112404222Y-73654991D01*
X112394652Y-73637087D01*
X112320557Y-73498467D01*
X112303384Y-73441853D01*
X112269037Y-73328627D01*
X112251641Y-73152000D01*
X112269037Y-72975373D01*
X112320557Y-72805534D01*
X112320557Y-72805533D01*
X112404221Y-72649011D01*
X112404222Y-72649009D01*
X112433552Y-72613271D01*
X112516814Y-72511814D01*
X112618271Y-72428552D01*
X112654009Y-72399222D01*
X112671913Y-72389652D01*
X112810533Y-72315557D01*
X112867147Y-72298384D01*
X112980373Y-72264037D01*
X113046557Y-72257519D01*
X113112740Y-72251000D01*
X113201260Y-72251000D01*
X113267443Y-72257519D01*
X113267443Y-72257519D01*
G37*
G36*
X103702000Y-72923000D02*
X102800000Y-72923000D01*
X102800000Y-71921000D01*
X103702000Y-71921000D01*
X103702000Y-72923000D01*
X103702000Y-72923000D01*
G37*
G36*
X105602000Y-72923000D02*
X104700000Y-72923000D01*
X104700000Y-71921000D01*
X105602000Y-71921000D01*
X105602000Y-72923000D01*
X105602000Y-72923000D01*
G37*
G36*
X101231091Y-71868085D02*
X101265069Y-71878393D01*
X101296387Y-71895133D01*
X101323839Y-71917661D01*
X101346367Y-71945113D01*
X101363107Y-71976431D01*
X101373415Y-72010409D01*
X101377500Y-72051890D01*
X101377500Y-72728110D01*
X101373415Y-72769591D01*
X101363107Y-72803569D01*
X101346367Y-72834887D01*
X101323839Y-72862339D01*
X101296387Y-72884867D01*
X101265069Y-72901607D01*
X101231091Y-72911915D01*
X101189610Y-72916000D01*
X100588390Y-72916000D01*
X100546909Y-72911915D01*
X100512931Y-72901607D01*
X100481613Y-72884867D01*
X100454161Y-72862339D01*
X100431633Y-72834887D01*
X100414893Y-72803569D01*
X100404585Y-72769591D01*
X100400500Y-72728110D01*
X100400500Y-72051890D01*
X100404585Y-72010409D01*
X100414893Y-71976431D01*
X100431633Y-71945113D01*
X100454161Y-71917661D01*
X100481613Y-71895133D01*
X100512931Y-71878393D01*
X100546909Y-71868085D01*
X100588390Y-71864000D01*
X101189610Y-71864000D01*
X101231091Y-71868085D01*
X101231091Y-71868085D01*
G37*
G36*
X99656091Y-71868085D02*
X99690069Y-71878393D01*
X99721387Y-71895133D01*
X99748839Y-71917661D01*
X99771367Y-71945113D01*
X99788107Y-71976431D01*
X99798415Y-72010409D01*
X99802500Y-72051890D01*
X99802500Y-72728110D01*
X99798415Y-72769591D01*
X99788107Y-72803569D01*
X99771367Y-72834887D01*
X99748839Y-72862339D01*
X99721387Y-72884867D01*
X99690069Y-72901607D01*
X99656091Y-72911915D01*
X99614610Y-72916000D01*
X99013390Y-72916000D01*
X98971909Y-72911915D01*
X98937931Y-72901607D01*
X98906613Y-72884867D01*
X98879161Y-72862339D01*
X98856633Y-72834887D01*
X98839893Y-72803569D01*
X98829585Y-72769591D01*
X98825500Y-72728110D01*
X98825500Y-72051890D01*
X98829585Y-72010409D01*
X98839893Y-71976431D01*
X98856633Y-71945113D01*
X98879161Y-71917661D01*
X98906613Y-71895133D01*
X98937931Y-71878393D01*
X98971909Y-71868085D01*
X99013390Y-71864000D01*
X99614610Y-71864000D01*
X99656091Y-71868085D01*
X99656091Y-71868085D01*
G37*
G36*
X96336000Y-72891000D02*
X95434000Y-72891000D01*
X95434000Y-71889000D01*
X96336000Y-71889000D01*
X96336000Y-72891000D01*
X96336000Y-72891000D01*
G37*
G36*
X89616734Y-68489232D02*
X89826202Y-68575996D01*
X90014723Y-68701962D01*
X90175038Y-68862277D01*
X90301004Y-69050798D01*
X90387768Y-69260266D01*
X90432000Y-69482635D01*
X90432000Y-69709365D01*
X90387768Y-69931734D01*
X90301004Y-70141202D01*
X90175038Y-70329723D01*
X90014723Y-70490038D01*
X89826202Y-70616004D01*
X89616734Y-70702768D01*
X89394365Y-70747000D01*
X89167635Y-70747000D01*
X88945266Y-70702768D01*
X88735798Y-70616004D01*
X88547277Y-70490038D01*
X88386962Y-70329723D01*
X88260996Y-70141202D01*
X88174232Y-69931734D01*
X88130000Y-69709365D01*
X88130000Y-69482635D01*
X88174232Y-69260266D01*
X88260996Y-69050798D01*
X88386962Y-68862277D01*
X88547277Y-68701962D01*
X88735798Y-68575996D01*
X88945266Y-68489232D01*
X89167635Y-68445000D01*
X89394365Y-68445000D01*
X89616734Y-68489232D01*
X89616734Y-68489232D01*
G37*
G36*
X112407000Y-69481000D02*
X110605000Y-69481000D01*
X110605000Y-67679000D01*
X112407000Y-67679000D01*
X112407000Y-69481000D01*
X112407000Y-69481000D01*
G37*
G36*
X109076443Y-67685519D02*
X109142627Y-67692037D01*
X109255853Y-67726384D01*
X109312467Y-67743557D01*
X109451087Y-67817652D01*
X109468991Y-67827222D01*
X109504729Y-67856552D01*
X109606186Y-67939814D01*
X109689448Y-68041271D01*
X109718778Y-68077009D01*
X109718779Y-68077011D01*
X109802443Y-68233533D01*
X109802443Y-68233534D01*
X109853963Y-68403373D01*
X109871359Y-68580000D01*
X109853963Y-68756627D01*
X109821914Y-68862277D01*
X109802443Y-68926467D01*
X109735986Y-69050797D01*
X109718778Y-69082991D01*
X109689448Y-69118729D01*
X109606186Y-69220186D01*
X109504729Y-69303448D01*
X109468991Y-69332778D01*
X109468989Y-69332779D01*
X109312467Y-69416443D01*
X109255853Y-69433616D01*
X109142627Y-69467963D01*
X109076442Y-69474482D01*
X109010260Y-69481000D01*
X108921740Y-69481000D01*
X108855558Y-69474482D01*
X108789373Y-69467963D01*
X108676147Y-69433616D01*
X108619533Y-69416443D01*
X108463011Y-69332779D01*
X108463009Y-69332778D01*
X108427271Y-69303448D01*
X108325814Y-69220186D01*
X108242552Y-69118729D01*
X108213222Y-69082991D01*
X108196014Y-69050797D01*
X108129557Y-68926467D01*
X108110086Y-68862277D01*
X108078037Y-68756627D01*
X108060641Y-68580000D01*
X108078037Y-68403373D01*
X108129557Y-68233534D01*
X108129557Y-68233533D01*
X108213221Y-68077011D01*
X108213222Y-68077009D01*
X108242552Y-68041271D01*
X108325814Y-67939814D01*
X108427271Y-67856552D01*
X108463009Y-67827222D01*
X108480913Y-67817652D01*
X108619533Y-67743557D01*
X108676147Y-67726384D01*
X108789373Y-67692037D01*
X108855557Y-67685519D01*
X108921740Y-67679000D01*
X109010260Y-67679000D01*
X109076443Y-67685519D01*
X109076443Y-67685519D01*
G37*
G36*
X106536443Y-67685519D02*
X106602627Y-67692037D01*
X106715853Y-67726384D01*
X106772467Y-67743557D01*
X106911087Y-67817652D01*
X106928991Y-67827222D01*
X106964729Y-67856552D01*
X107066186Y-67939814D01*
X107149448Y-68041271D01*
X107178778Y-68077009D01*
X107178779Y-68077011D01*
X107262443Y-68233533D01*
X107262443Y-68233534D01*
X107313963Y-68403373D01*
X107331359Y-68580000D01*
X107313963Y-68756627D01*
X107281914Y-68862277D01*
X107262443Y-68926467D01*
X107195986Y-69050797D01*
X107178778Y-69082991D01*
X107149448Y-69118729D01*
X107066186Y-69220186D01*
X106964729Y-69303448D01*
X106928991Y-69332778D01*
X106928989Y-69332779D01*
X106772467Y-69416443D01*
X106715853Y-69433616D01*
X106602627Y-69467963D01*
X106536442Y-69474482D01*
X106470260Y-69481000D01*
X106381740Y-69481000D01*
X106315558Y-69474482D01*
X106249373Y-69467963D01*
X106136147Y-69433616D01*
X106079533Y-69416443D01*
X105923011Y-69332779D01*
X105923009Y-69332778D01*
X105887271Y-69303448D01*
X105785814Y-69220186D01*
X105702552Y-69118729D01*
X105673222Y-69082991D01*
X105656014Y-69050797D01*
X105589557Y-68926467D01*
X105570086Y-68862277D01*
X105538037Y-68756627D01*
X105520641Y-68580000D01*
X105538037Y-68403373D01*
X105589557Y-68233534D01*
X105589557Y-68233533D01*
X105673221Y-68077011D01*
X105673222Y-68077009D01*
X105702552Y-68041271D01*
X105785814Y-67939814D01*
X105887271Y-67856552D01*
X105923009Y-67827222D01*
X105940913Y-67817652D01*
X106079533Y-67743557D01*
X106136147Y-67726384D01*
X106249373Y-67692037D01*
X106315557Y-67685519D01*
X106381740Y-67679000D01*
X106470260Y-67679000D01*
X106536443Y-67685519D01*
X106536443Y-67685519D01*
G37*
G36*
X103996443Y-67685519D02*
X104062627Y-67692037D01*
X104175853Y-67726384D01*
X104232467Y-67743557D01*
X104371087Y-67817652D01*
X104388991Y-67827222D01*
X104424729Y-67856552D01*
X104526186Y-67939814D01*
X104609448Y-68041271D01*
X104638778Y-68077009D01*
X104638779Y-68077011D01*
X104722443Y-68233533D01*
X104722443Y-68233534D01*
X104773963Y-68403373D01*
X104791359Y-68580000D01*
X104773963Y-68756627D01*
X104741914Y-68862277D01*
X104722443Y-68926467D01*
X104655986Y-69050797D01*
X104638778Y-69082991D01*
X104609448Y-69118729D01*
X104526186Y-69220186D01*
X104424729Y-69303448D01*
X104388991Y-69332778D01*
X104388989Y-69332779D01*
X104232467Y-69416443D01*
X104175853Y-69433616D01*
X104062627Y-69467963D01*
X103996442Y-69474482D01*
X103930260Y-69481000D01*
X103841740Y-69481000D01*
X103775558Y-69474482D01*
X103709373Y-69467963D01*
X103596147Y-69433616D01*
X103539533Y-69416443D01*
X103383011Y-69332779D01*
X103383009Y-69332778D01*
X103347271Y-69303448D01*
X103245814Y-69220186D01*
X103162552Y-69118729D01*
X103133222Y-69082991D01*
X103116014Y-69050797D01*
X103049557Y-68926467D01*
X103030086Y-68862277D01*
X102998037Y-68756627D01*
X102980641Y-68580000D01*
X102998037Y-68403373D01*
X103049557Y-68233534D01*
X103049557Y-68233533D01*
X103133221Y-68077011D01*
X103133222Y-68077009D01*
X103162552Y-68041271D01*
X103245814Y-67939814D01*
X103347271Y-67856552D01*
X103383009Y-67827222D01*
X103400913Y-67817652D01*
X103539533Y-67743557D01*
X103596147Y-67726384D01*
X103709373Y-67692037D01*
X103775557Y-67685519D01*
X103841740Y-67679000D01*
X103930260Y-67679000D01*
X103996443Y-67685519D01*
X103996443Y-67685519D01*
G37*
G36*
X101456443Y-67685519D02*
X101522627Y-67692037D01*
X101635853Y-67726384D01*
X101692467Y-67743557D01*
X101831087Y-67817652D01*
X101848991Y-67827222D01*
X101884729Y-67856552D01*
X101986186Y-67939814D01*
X102069448Y-68041271D01*
X102098778Y-68077009D01*
X102098779Y-68077011D01*
X102182443Y-68233533D01*
X102182443Y-68233534D01*
X102233963Y-68403373D01*
X102251359Y-68580000D01*
X102233963Y-68756627D01*
X102201914Y-68862277D01*
X102182443Y-68926467D01*
X102115986Y-69050797D01*
X102098778Y-69082991D01*
X102069448Y-69118729D01*
X101986186Y-69220186D01*
X101884729Y-69303448D01*
X101848991Y-69332778D01*
X101848989Y-69332779D01*
X101692467Y-69416443D01*
X101635853Y-69433616D01*
X101522627Y-69467963D01*
X101456442Y-69474482D01*
X101390260Y-69481000D01*
X101301740Y-69481000D01*
X101235558Y-69474482D01*
X101169373Y-69467963D01*
X101056147Y-69433616D01*
X100999533Y-69416443D01*
X100843011Y-69332779D01*
X100843009Y-69332778D01*
X100807271Y-69303448D01*
X100705814Y-69220186D01*
X100622552Y-69118729D01*
X100593222Y-69082991D01*
X100576014Y-69050797D01*
X100509557Y-68926467D01*
X100490086Y-68862277D01*
X100458037Y-68756627D01*
X100440641Y-68580000D01*
X100458037Y-68403373D01*
X100509557Y-68233534D01*
X100509557Y-68233533D01*
X100593221Y-68077011D01*
X100593222Y-68077009D01*
X100622552Y-68041271D01*
X100705814Y-67939814D01*
X100807271Y-67856552D01*
X100843009Y-67827222D01*
X100860913Y-67817652D01*
X100999533Y-67743557D01*
X101056147Y-67726384D01*
X101169373Y-67692037D01*
X101235557Y-67685519D01*
X101301740Y-67679000D01*
X101390260Y-67679000D01*
X101456443Y-67685519D01*
X101456443Y-67685519D01*
G37*
G36*
X98916443Y-67685519D02*
X98982627Y-67692037D01*
X99095853Y-67726384D01*
X99152467Y-67743557D01*
X99291087Y-67817652D01*
X99308991Y-67827222D01*
X99344729Y-67856552D01*
X99446186Y-67939814D01*
X99529448Y-68041271D01*
X99558778Y-68077009D01*
X99558779Y-68077011D01*
X99642443Y-68233533D01*
X99642443Y-68233534D01*
X99693963Y-68403373D01*
X99711359Y-68580000D01*
X99693963Y-68756627D01*
X99661914Y-68862277D01*
X99642443Y-68926467D01*
X99575986Y-69050797D01*
X99558778Y-69082991D01*
X99529448Y-69118729D01*
X99446186Y-69220186D01*
X99344729Y-69303448D01*
X99308991Y-69332778D01*
X99308989Y-69332779D01*
X99152467Y-69416443D01*
X99095853Y-69433616D01*
X98982627Y-69467963D01*
X98916442Y-69474482D01*
X98850260Y-69481000D01*
X98761740Y-69481000D01*
X98695558Y-69474482D01*
X98629373Y-69467963D01*
X98516147Y-69433616D01*
X98459533Y-69416443D01*
X98303011Y-69332779D01*
X98303009Y-69332778D01*
X98267271Y-69303448D01*
X98165814Y-69220186D01*
X98082552Y-69118729D01*
X98053222Y-69082991D01*
X98036014Y-69050797D01*
X97969557Y-68926467D01*
X97950086Y-68862277D01*
X97918037Y-68756627D01*
X97900641Y-68580000D01*
X97918037Y-68403373D01*
X97969557Y-68233534D01*
X97969557Y-68233533D01*
X98053221Y-68077011D01*
X98053222Y-68077009D01*
X98082552Y-68041271D01*
X98165814Y-67939814D01*
X98267271Y-67856552D01*
X98303009Y-67827222D01*
X98320913Y-67817652D01*
X98459533Y-67743557D01*
X98516147Y-67726384D01*
X98629373Y-67692037D01*
X98695557Y-67685519D01*
X98761740Y-67679000D01*
X98850260Y-67679000D01*
X98916443Y-67685519D01*
X98916443Y-67685519D01*
G37*
M02*
