M48
;DRILL file {KiCad (5.0.2)-1} date 03/04/2019 22:00:06
;FORMAT={-:-/ absolute / inch / decimal}
FMAT,2
INCH,TZ
T1C0.0157
T2C0.0394
T3C0.0866
%
G90
G05
T1
X3.565Y-3.735
X3.76Y-3.265
X3.78Y-3.5783
X3.782Y-3.03
X3.83Y-3.26
X3.961Y-3.894
X3.975Y-3.655
X4.065Y-3.01
X4.1178Y-4.05
X4.14Y-2.985
X4.15Y-3.575
X4.165Y-3.335
X4.165Y-3.41
X4.1805Y-3.4995
X4.32Y-3.64
X4.415Y-4.015
X4.455Y-3.67
X4.485Y-4.0666
T2
X4.455Y-2.88
X4.455Y-2.98
X4.455Y-3.08
X4.455Y-3.18
X4.455Y-3.28
X4.455Y-3.38
X4.455Y-3.48
X4.455Y-3.58
X3.89Y-2.7
X3.99Y-2.7
X4.09Y-2.7
X4.19Y-2.7
X4.29Y-2.7
X4.39Y-2.7
X3.495Y-3.11
X3.495Y-3.21
X3.495Y-3.31
X3.495Y-3.41
X3.495Y-3.51
X3.98Y-4.34
X3.77Y-4.345
T3
X3.515Y-2.74
T0
M30
