G04 #@! TF.GenerationSoftware,KiCad,Pcbnew,(5.0.2)-1*
G04 #@! TF.CreationDate,2019-04-03T22:00:09+02:00*
G04 #@! TF.ProjectId,holl,686f6c6c-2e6b-4696-9361-645f70636258,rev?*
G04 #@! TF.SameCoordinates,Original*
G04 #@! TF.FileFunction,Legend,Top*
G04 #@! TF.FilePolarity,Positive*
%FSLAX46Y46*%
G04 Gerber Fmt 4.6, Leading zero omitted, Abs format (unit mm)*
G04 Created by KiCad (PCBNEW (5.0.2)-1) date 03/04/2019 22:00:09*
%MOMM*%
%LPD*%
G01*
G04 APERTURE LIST*
%ADD10C,0.300000*%
%ADD11C,0.200000*%
%ADD12C,0.120000*%
%ADD13C,0.150000*%
%ADD14C,0.050000*%
G04 APERTURE END LIST*
D10*
X93091142Y-107581000D02*
X92948285Y-107509571D01*
X92734000Y-107509571D01*
X92519714Y-107581000D01*
X92376857Y-107723857D01*
X92305428Y-107866714D01*
X92234000Y-108152428D01*
X92234000Y-108366714D01*
X92305428Y-108652428D01*
X92376857Y-108795285D01*
X92519714Y-108938142D01*
X92734000Y-109009571D01*
X92876857Y-109009571D01*
X93091142Y-108938142D01*
X93162571Y-108866714D01*
X93162571Y-108366714D01*
X92876857Y-108366714D01*
X93805428Y-109009571D02*
X93805428Y-107509571D01*
X94662571Y-109009571D01*
X94662571Y-107509571D01*
X95376857Y-109009571D02*
X95376857Y-107509571D01*
X95734000Y-107509571D01*
X95948285Y-107581000D01*
X96091142Y-107723857D01*
X96162571Y-107866714D01*
X96234000Y-108152428D01*
X96234000Y-108366714D01*
X96162571Y-108652428D01*
X96091142Y-108795285D01*
X95948285Y-108938142D01*
X95734000Y-109009571D01*
X95376857Y-109009571D01*
X99068428Y-107128571D02*
X99568428Y-108628571D01*
X100068428Y-107128571D01*
X101425571Y-108485714D02*
X101354142Y-108557142D01*
X101139857Y-108628571D01*
X100997000Y-108628571D01*
X100782714Y-108557142D01*
X100639857Y-108414285D01*
X100568428Y-108271428D01*
X100497000Y-107985714D01*
X100497000Y-107771428D01*
X100568428Y-107485714D01*
X100639857Y-107342857D01*
X100782714Y-107200000D01*
X100997000Y-107128571D01*
X101139857Y-107128571D01*
X101354142Y-107200000D01*
X101425571Y-107271428D01*
X102925571Y-108485714D02*
X102854142Y-108557142D01*
X102639857Y-108628571D01*
X102497000Y-108628571D01*
X102282714Y-108557142D01*
X102139857Y-108414285D01*
X102068428Y-108271428D01*
X101997000Y-107985714D01*
X101997000Y-107771428D01*
X102068428Y-107485714D01*
X102139857Y-107342857D01*
X102282714Y-107200000D01*
X102497000Y-107128571D01*
X102639857Y-107128571D01*
X102854142Y-107200000D01*
X102925571Y-107271428D01*
X105425571Y-107128571D02*
X104711285Y-107128571D01*
X104639857Y-107842857D01*
X104711285Y-107771428D01*
X104854142Y-107700000D01*
X105211285Y-107700000D01*
X105354142Y-107771428D01*
X105425571Y-107842857D01*
X105497000Y-107985714D01*
X105497000Y-108342857D01*
X105425571Y-108485714D01*
X105354142Y-108557142D01*
X105211285Y-108628571D01*
X104854142Y-108628571D01*
X104711285Y-108557142D01*
X104639857Y-108485714D01*
X105925571Y-107128571D02*
X106425571Y-108628571D01*
X106925571Y-107128571D01*
D11*
X96806333Y-65968571D02*
X97139666Y-65968571D01*
X97282523Y-66492380D02*
X96806333Y-66492380D01*
X96806333Y-65492380D01*
X97282523Y-65492380D01*
X97663476Y-66444761D02*
X97806333Y-66492380D01*
X98044428Y-66492380D01*
X98139666Y-66444761D01*
X98187285Y-66397142D01*
X98234904Y-66301904D01*
X98234904Y-66206666D01*
X98187285Y-66111428D01*
X98139666Y-66063809D01*
X98044428Y-66016190D01*
X97853952Y-65968571D01*
X97758714Y-65920952D01*
X97711095Y-65873333D01*
X97663476Y-65778095D01*
X97663476Y-65682857D01*
X97711095Y-65587619D01*
X97758714Y-65540000D01*
X97853952Y-65492380D01*
X98092047Y-65492380D01*
X98234904Y-65540000D01*
X98663476Y-66492380D02*
X98663476Y-65492380D01*
X99044428Y-65492380D01*
X99139666Y-65540000D01*
X99187285Y-65587619D01*
X99234904Y-65682857D01*
X99234904Y-65825714D01*
X99187285Y-65920952D01*
X99139666Y-65968571D01*
X99044428Y-66016190D01*
X98663476Y-66016190D01*
X99853952Y-65492380D02*
X99949190Y-65492380D01*
X100044428Y-65540000D01*
X100092047Y-65587619D01*
X100139666Y-65682857D01*
X100187285Y-65873333D01*
X100187285Y-66111428D01*
X100139666Y-66301904D01*
X100092047Y-66397142D01*
X100044428Y-66444761D01*
X99949190Y-66492380D01*
X99853952Y-66492380D01*
X99758714Y-66444761D01*
X99711095Y-66397142D01*
X99663476Y-66301904D01*
X99615857Y-66111428D01*
X99615857Y-65873333D01*
X99663476Y-65682857D01*
X99711095Y-65587619D01*
X99758714Y-65540000D01*
X99853952Y-65492380D01*
X100520619Y-65492380D02*
X101187285Y-65492380D01*
X100758714Y-66492380D01*
X101568238Y-66111428D02*
X102330142Y-66111428D01*
X102949190Y-65920952D02*
X102853952Y-65873333D01*
X102806333Y-65825714D01*
X102758714Y-65730476D01*
X102758714Y-65682857D01*
X102806333Y-65587619D01*
X102853952Y-65540000D01*
X102949190Y-65492380D01*
X103139666Y-65492380D01*
X103234904Y-65540000D01*
X103282523Y-65587619D01*
X103330142Y-65682857D01*
X103330142Y-65730476D01*
X103282523Y-65825714D01*
X103234904Y-65873333D01*
X103139666Y-65920952D01*
X102949190Y-65920952D01*
X102853952Y-65968571D01*
X102806333Y-66016190D01*
X102758714Y-66111428D01*
X102758714Y-66301904D01*
X102806333Y-66397142D01*
X102853952Y-66444761D01*
X102949190Y-66492380D01*
X103139666Y-66492380D01*
X103234904Y-66444761D01*
X103282523Y-66397142D01*
X103330142Y-66301904D01*
X103330142Y-66111428D01*
X103282523Y-66016190D01*
X103234904Y-65968571D01*
X103139666Y-65920952D01*
X103711095Y-65587619D02*
X103758714Y-65540000D01*
X103853952Y-65492380D01*
X104092047Y-65492380D01*
X104187285Y-65540000D01*
X104234904Y-65587619D01*
X104282523Y-65682857D01*
X104282523Y-65778095D01*
X104234904Y-65920952D01*
X103663476Y-66492380D01*
X104282523Y-66492380D01*
X105139666Y-65492380D02*
X104949190Y-65492380D01*
X104853952Y-65540000D01*
X104806333Y-65587619D01*
X104711095Y-65730476D01*
X104663476Y-65920952D01*
X104663476Y-66301904D01*
X104711095Y-66397142D01*
X104758714Y-66444761D01*
X104853952Y-66492380D01*
X105044428Y-66492380D01*
X105139666Y-66444761D01*
X105187285Y-66397142D01*
X105234904Y-66301904D01*
X105234904Y-66063809D01*
X105187285Y-65968571D01*
X105139666Y-65920952D01*
X105044428Y-65873333D01*
X104853952Y-65873333D01*
X104758714Y-65920952D01*
X104711095Y-65968571D01*
X104663476Y-66063809D01*
X106092047Y-65492380D02*
X105901571Y-65492380D01*
X105806333Y-65540000D01*
X105758714Y-65587619D01*
X105663476Y-65730476D01*
X105615857Y-65920952D01*
X105615857Y-66301904D01*
X105663476Y-66397142D01*
X105711095Y-66444761D01*
X105806333Y-66492380D01*
X105996809Y-66492380D01*
X106092047Y-66444761D01*
X106139666Y-66397142D01*
X106187285Y-66301904D01*
X106187285Y-66063809D01*
X106139666Y-65968571D01*
X106092047Y-65920952D01*
X105996809Y-65873333D01*
X105806333Y-65873333D01*
X105711095Y-65920952D01*
X105663476Y-65968571D01*
X105615857Y-66063809D01*
X107013857Y-65492380D02*
X107251952Y-66492380D01*
X107442428Y-65778095D01*
X107632904Y-66492380D01*
X107871000Y-65492380D01*
X108251952Y-66492380D02*
X108251952Y-65825714D01*
X108251952Y-65492380D02*
X108204333Y-65540000D01*
X108251952Y-65587619D01*
X108299571Y-65540000D01*
X108251952Y-65492380D01*
X108251952Y-65587619D01*
X108585285Y-65825714D02*
X108966238Y-65825714D01*
X108728142Y-66492380D02*
X108728142Y-65635238D01*
X108775761Y-65540000D01*
X108871000Y-65492380D01*
X108966238Y-65492380D01*
X109299571Y-66492380D02*
X109299571Y-65825714D01*
X109299571Y-65492380D02*
X109251952Y-65540000D01*
X109299571Y-65587619D01*
X109347190Y-65540000D01*
X109299571Y-65492380D01*
X109299571Y-65587619D01*
X110537666Y-66492380D02*
X110537666Y-65825714D01*
X110537666Y-65920952D02*
X110585285Y-65873333D01*
X110680523Y-65825714D01*
X110823380Y-65825714D01*
X110918619Y-65873333D01*
X110966238Y-65968571D01*
X110966238Y-66492380D01*
X110966238Y-65968571D02*
X111013857Y-65873333D01*
X111109095Y-65825714D01*
X111251952Y-65825714D01*
X111347190Y-65873333D01*
X111394809Y-65968571D01*
X111394809Y-66492380D01*
X112013857Y-66492380D02*
X111918619Y-66444761D01*
X111871000Y-66397142D01*
X111823380Y-66301904D01*
X111823380Y-66016190D01*
X111871000Y-65920952D01*
X111918619Y-65873333D01*
X112013857Y-65825714D01*
X112156714Y-65825714D01*
X112251952Y-65873333D01*
X112299571Y-65920952D01*
X112347190Y-66016190D01*
X112347190Y-66301904D01*
X112299571Y-66397142D01*
X112251952Y-66444761D01*
X112156714Y-66492380D01*
X112013857Y-66492380D01*
X113204333Y-66492380D02*
X113204333Y-65492380D01*
X113204333Y-66444761D02*
X113109095Y-66492380D01*
X112918619Y-66492380D01*
X112823380Y-66444761D01*
X112775761Y-66397142D01*
X112728142Y-66301904D01*
X112728142Y-66016190D01*
X112775761Y-65920952D01*
X112823380Y-65873333D01*
X112918619Y-65825714D01*
X113109095Y-65825714D01*
X113204333Y-65873333D01*
X114109095Y-65825714D02*
X114109095Y-66492380D01*
X113680523Y-65825714D02*
X113680523Y-66349523D01*
X113728142Y-66444761D01*
X113823380Y-66492380D01*
X113966238Y-66492380D01*
X114061476Y-66444761D01*
X114109095Y-66397142D01*
X114728142Y-66492380D02*
X114632904Y-66444761D01*
X114585285Y-66349523D01*
X114585285Y-65492380D01*
X86828809Y-65619380D02*
X87019285Y-65619380D01*
X87114523Y-65667000D01*
X87209761Y-65762238D01*
X87257380Y-65952714D01*
X87257380Y-66286047D01*
X87209761Y-66476523D01*
X87114523Y-66571761D01*
X87019285Y-66619380D01*
X86828809Y-66619380D01*
X86733571Y-66571761D01*
X86638333Y-66476523D01*
X86590714Y-66286047D01*
X86590714Y-65952714D01*
X86638333Y-65762238D01*
X86733571Y-65667000D01*
X86828809Y-65619380D01*
X87828809Y-66619380D02*
X87733571Y-66571761D01*
X87685952Y-66476523D01*
X87685952Y-65619380D01*
X88209761Y-66619380D02*
X88209761Y-65952714D01*
X88209761Y-65619380D02*
X88162142Y-65667000D01*
X88209761Y-65714619D01*
X88257380Y-65667000D01*
X88209761Y-65619380D01*
X88209761Y-65714619D01*
X88590714Y-65952714D02*
X88828809Y-66619380D01*
X89066904Y-65952714D01*
X89828809Y-66571761D02*
X89733571Y-66619380D01*
X89543095Y-66619380D01*
X89447857Y-66571761D01*
X89400238Y-66476523D01*
X89400238Y-66095571D01*
X89447857Y-66000333D01*
X89543095Y-65952714D01*
X89733571Y-65952714D01*
X89828809Y-66000333D01*
X89876428Y-66095571D01*
X89876428Y-66190809D01*
X89400238Y-66286047D01*
X90305000Y-66619380D02*
X90305000Y-65952714D01*
X90305000Y-66143190D02*
X90352619Y-66047952D01*
X90400238Y-66000333D01*
X90495476Y-65952714D01*
X90590714Y-65952714D01*
X91685952Y-66619380D02*
X91685952Y-65619380D01*
X91685952Y-66095571D02*
X92257380Y-66095571D01*
X92257380Y-66619380D02*
X92257380Y-65619380D01*
X92876428Y-66619380D02*
X92781190Y-66571761D01*
X92733571Y-66524142D01*
X92685952Y-66428904D01*
X92685952Y-66143190D01*
X92733571Y-66047952D01*
X92781190Y-66000333D01*
X92876428Y-65952714D01*
X93019285Y-65952714D01*
X93114523Y-66000333D01*
X93162142Y-66047952D01*
X93209761Y-66143190D01*
X93209761Y-66428904D01*
X93162142Y-66524142D01*
X93114523Y-66571761D01*
X93019285Y-66619380D01*
X92876428Y-66619380D01*
X93781190Y-66619380D02*
X93685952Y-66571761D01*
X93638333Y-66476523D01*
X93638333Y-65619380D01*
X94305000Y-66619380D02*
X94209761Y-66571761D01*
X94162142Y-66476523D01*
X94162142Y-65619380D01*
X94590714Y-65952714D02*
X94828809Y-66619380D01*
X95066904Y-65952714D02*
X94828809Y-66619380D01*
X94733571Y-66857476D01*
X94685952Y-66905095D01*
X94590714Y-66952714D01*
X94924047Y-65571761D02*
X94781190Y-65714619D01*
D12*
G04 #@! TO.C,U1*
X108831000Y-78088000D02*
X108831000Y-77688000D01*
X92591000Y-78088000D02*
X92591000Y-77688000D01*
X108831000Y-80088000D02*
X108831000Y-79688000D01*
X92591000Y-80088000D02*
X92591000Y-79688000D01*
X108831000Y-82088000D02*
X108831000Y-81688000D01*
X92591000Y-82088000D02*
X92591000Y-81688000D01*
X108831000Y-84088000D02*
X108831000Y-83688000D01*
X92591000Y-84088000D02*
X92591000Y-83688000D01*
X108831000Y-86088000D02*
X108831000Y-85688000D01*
X92591000Y-86088000D02*
X92591000Y-85688000D01*
X108831000Y-88088000D02*
X108831000Y-87688000D01*
X92591000Y-88088000D02*
X92591000Y-87688000D01*
X108831000Y-90088000D02*
X108831000Y-89688000D01*
X92591000Y-90088000D02*
X92591000Y-89688000D01*
X91561000Y-76388000D02*
X91561000Y-77388000D01*
X92591000Y-92508000D02*
X92591000Y-91688000D01*
X108831000Y-92508000D02*
X92591000Y-92508000D01*
X108831000Y-91688000D02*
X108831000Y-92508000D01*
G04 #@! TO.C,SW1*
X90780300Y-103636200D02*
X96900300Y-103636200D01*
X96900300Y-103636200D02*
X96900300Y-107336200D01*
X96900300Y-107336200D02*
X90780300Y-107336200D01*
X90780300Y-107336200D02*
X90780300Y-103636200D01*
G04 #@! TO.C,SW2*
X96849500Y-99102300D02*
X96849500Y-102802300D01*
X90729500Y-99102300D02*
X96849500Y-99102300D01*
X90729500Y-102802300D02*
X90729500Y-99102300D01*
X96849500Y-102802300D02*
X90729500Y-102802300D01*
G04 #@! TO.C,C7*
X93262267Y-96052100D02*
X92919733Y-96052100D01*
X93262267Y-95032100D02*
X92919733Y-95032100D01*
G04 #@! TO.C,D2*
X112613000Y-110347000D02*
X112613000Y-108347000D01*
X112613000Y-108347000D02*
X108713000Y-108347000D01*
X112613000Y-110347000D02*
X108713000Y-110347000D01*
G04 #@! TO.C,J3*
X110236000Y-67250000D02*
X110236000Y-69910000D01*
X110236000Y-67250000D02*
X97476000Y-67250000D01*
X97476000Y-67250000D02*
X97476000Y-69910000D01*
X110236000Y-69910000D02*
X97476000Y-69910000D01*
X112836000Y-69910000D02*
X111506000Y-69910000D01*
X112836000Y-68580000D02*
X112836000Y-69910000D01*
G04 #@! TO.C,J2*
X113157000Y-92262000D02*
X111827000Y-92262000D01*
X111827000Y-92262000D02*
X111827000Y-90932000D01*
X111827000Y-89662000D02*
X111827000Y-71822000D01*
X114487000Y-71822000D02*
X111827000Y-71822000D01*
X114487000Y-89662000D02*
X114487000Y-71822000D01*
X114487000Y-89662000D02*
X111827000Y-89662000D01*
G04 #@! TO.C,C1*
X109476000Y-96310267D02*
X109476000Y-95967733D01*
X108456000Y-96310267D02*
X108456000Y-95967733D01*
G04 #@! TO.C,C2*
X105638000Y-105758000D02*
X105638000Y-97523000D01*
X105638000Y-97523000D02*
X101118000Y-97523000D01*
X101118000Y-97523000D02*
X101118000Y-105758000D01*
G04 #@! TO.C,Q1*
X107117000Y-94109000D02*
X106187000Y-94109000D01*
X103957000Y-94109000D02*
X104887000Y-94109000D01*
X103957000Y-94109000D02*
X103957000Y-96269000D01*
X107117000Y-94109000D02*
X107117000Y-95569000D01*
G04 #@! TO.C,R1*
X88136000Y-74686279D02*
X88136000Y-74360721D01*
X89156000Y-74686279D02*
X89156000Y-74360721D01*
G04 #@! TO.C,R2*
X89914000Y-74360721D02*
X89914000Y-74686279D01*
X90934000Y-74360721D02*
X90934000Y-74686279D01*
G04 #@! TO.C,R12*
X92864721Y-93292200D02*
X93190279Y-93292200D01*
X92864721Y-94312200D02*
X93190279Y-94312200D01*
G04 #@! TO.C,U3*
X107080000Y-106970000D02*
X107080000Y-100960000D01*
X113900000Y-104720000D02*
X113900000Y-100960000D01*
X107080000Y-100960000D02*
X108340000Y-100960000D01*
X113900000Y-100960000D02*
X112640000Y-100960000D01*
G04 #@! TO.C,J1*
X87443000Y-80264000D02*
X90103000Y-80264000D01*
X87443000Y-80264000D02*
X87443000Y-90484000D01*
X87443000Y-90484000D02*
X90103000Y-90484000D01*
X90103000Y-80264000D02*
X90103000Y-90484000D01*
X90103000Y-77664000D02*
X90103000Y-78994000D01*
X88773000Y-77664000D02*
X90103000Y-77664000D01*
G04 #@! TO.C,J4*
X99762000Y-111566000D02*
X102422000Y-111566000D01*
X99762000Y-111506000D02*
X99762000Y-111566000D01*
X102422000Y-111506000D02*
X102422000Y-111566000D01*
X99762000Y-111506000D02*
X102422000Y-111506000D01*
X99762000Y-110236000D02*
X99762000Y-108906000D01*
X99762000Y-108906000D02*
X101092000Y-108906000D01*
G04 #@! TO.C,J5*
X94428000Y-109033000D02*
X95758000Y-109033000D01*
X94428000Y-110363000D02*
X94428000Y-109033000D01*
X94428000Y-111633000D02*
X97088000Y-111633000D01*
X97088000Y-111633000D02*
X97088000Y-111693000D01*
X94428000Y-111633000D02*
X94428000Y-111693000D01*
X94428000Y-111693000D02*
X97088000Y-111693000D01*
G04 #@! TO.C,J6*
X103702000Y-111436000D02*
X103702000Y-109036000D01*
X106102000Y-111436000D02*
X103702000Y-111436000D01*
X106102000Y-109036000D02*
X106102000Y-111436000D01*
X103702000Y-109036000D02*
X106102000Y-109036000D01*
G04 #@! TO.C,J7*
X90748000Y-109163000D02*
X93148000Y-109163000D01*
X93148000Y-109163000D02*
X93148000Y-111563000D01*
X93148000Y-111563000D02*
X90748000Y-111563000D01*
X90748000Y-111563000D02*
X90748000Y-109163000D01*
G04 #@! TO.C,C6*
X92919733Y-97957100D02*
X93262267Y-97957100D01*
X92919733Y-96937100D02*
X93262267Y-96937100D01*
G04 #@! TO.C,C4*
X112411252Y-96318000D02*
X111888748Y-96318000D01*
X112411252Y-97738000D02*
X111888748Y-97738000D01*
G04 #@! TO.C,C5*
X112411252Y-95325000D02*
X111888748Y-95325000D01*
X112411252Y-93905000D02*
X111888748Y-93905000D01*
D11*
G04 #@! TO.C,U2*
X98322000Y-93877000D02*
X101322000Y-93877000D01*
X101322000Y-96877000D02*
X98322000Y-96877000D01*
X97586930Y-94357000D02*
G75*
G03X97586930Y-94357000I-174930J0D01*
G01*
G04 #@! TO.C,U1*
D13*
X96901095Y-92670380D02*
X96901095Y-93479904D01*
X96948714Y-93575142D01*
X96996333Y-93622761D01*
X97091571Y-93670380D01*
X97282047Y-93670380D01*
X97377285Y-93622761D01*
X97424904Y-93575142D01*
X97472523Y-93479904D01*
X97472523Y-92670380D01*
X98472523Y-93670380D02*
X97901095Y-93670380D01*
X98186809Y-93670380D02*
X98186809Y-92670380D01*
X98091571Y-92813238D01*
X97996333Y-92908476D01*
X97901095Y-92956095D01*
G04 #@! TO.C,SW1*
X87947666Y-103909761D02*
X88090523Y-103957380D01*
X88328619Y-103957380D01*
X88423857Y-103909761D01*
X88471476Y-103862142D01*
X88519095Y-103766904D01*
X88519095Y-103671666D01*
X88471476Y-103576428D01*
X88423857Y-103528809D01*
X88328619Y-103481190D01*
X88138142Y-103433571D01*
X88042904Y-103385952D01*
X87995285Y-103338333D01*
X87947666Y-103243095D01*
X87947666Y-103147857D01*
X87995285Y-103052619D01*
X88042904Y-103005000D01*
X88138142Y-102957380D01*
X88376238Y-102957380D01*
X88519095Y-103005000D01*
X88852428Y-102957380D02*
X89090523Y-103957380D01*
X89281000Y-103243095D01*
X89471476Y-103957380D01*
X89709571Y-102957380D01*
X90614333Y-103957380D02*
X90042904Y-103957380D01*
X90328619Y-103957380D02*
X90328619Y-102957380D01*
X90233380Y-103100238D01*
X90138142Y-103195476D01*
X90042904Y-103243095D01*
G04 #@! TO.C,SW2*
X87820666Y-99210761D02*
X87963523Y-99258380D01*
X88201619Y-99258380D01*
X88296857Y-99210761D01*
X88344476Y-99163142D01*
X88392095Y-99067904D01*
X88392095Y-98972666D01*
X88344476Y-98877428D01*
X88296857Y-98829809D01*
X88201619Y-98782190D01*
X88011142Y-98734571D01*
X87915904Y-98686952D01*
X87868285Y-98639333D01*
X87820666Y-98544095D01*
X87820666Y-98448857D01*
X87868285Y-98353619D01*
X87915904Y-98306000D01*
X88011142Y-98258380D01*
X88249238Y-98258380D01*
X88392095Y-98306000D01*
X88725428Y-98258380D02*
X88963523Y-99258380D01*
X89154000Y-98544095D01*
X89344476Y-99258380D01*
X89582571Y-98258380D01*
X89915904Y-98353619D02*
X89963523Y-98306000D01*
X90058761Y-98258380D01*
X90296857Y-98258380D01*
X90392095Y-98306000D01*
X90439714Y-98353619D01*
X90487333Y-98448857D01*
X90487333Y-98544095D01*
X90439714Y-98686952D01*
X89868285Y-99258380D01*
X90487333Y-99258380D01*
G04 #@! TO.C,C7*
X90384333Y-95988142D02*
X90336714Y-96035761D01*
X90193857Y-96083380D01*
X90098619Y-96083380D01*
X89955761Y-96035761D01*
X89860523Y-95940523D01*
X89812904Y-95845285D01*
X89765285Y-95654809D01*
X89765285Y-95511952D01*
X89812904Y-95321476D01*
X89860523Y-95226238D01*
X89955761Y-95131000D01*
X90098619Y-95083380D01*
X90193857Y-95083380D01*
X90336714Y-95131000D01*
X90384333Y-95178619D01*
X90717666Y-95083380D02*
X91384333Y-95083380D01*
X90955761Y-96083380D01*
G04 #@! TO.C,D2*
X109624904Y-111799380D02*
X109624904Y-110799380D01*
X109863000Y-110799380D01*
X110005857Y-110847000D01*
X110101095Y-110942238D01*
X110148714Y-111037476D01*
X110196333Y-111227952D01*
X110196333Y-111370809D01*
X110148714Y-111561285D01*
X110101095Y-111656523D01*
X110005857Y-111751761D01*
X109863000Y-111799380D01*
X109624904Y-111799380D01*
X110577285Y-110894619D02*
X110624904Y-110847000D01*
X110720142Y-110799380D01*
X110958238Y-110799380D01*
X111053476Y-110847000D01*
X111101095Y-110894619D01*
X111148714Y-110989857D01*
X111148714Y-111085095D01*
X111101095Y-111227952D01*
X110529666Y-111799380D01*
X111148714Y-111799380D01*
G04 #@! TO.C,J3*
X113244380Y-68786333D02*
X113958666Y-68786333D01*
X114101523Y-68833952D01*
X114196761Y-68929190D01*
X114244380Y-69072047D01*
X114244380Y-69167285D01*
X113244380Y-68405380D02*
X113244380Y-67786333D01*
X113625333Y-68119666D01*
X113625333Y-67976809D01*
X113672952Y-67881571D01*
X113720571Y-67833952D01*
X113815809Y-67786333D01*
X114053904Y-67786333D01*
X114149142Y-67833952D01*
X114196761Y-67881571D01*
X114244380Y-67976809D01*
X114244380Y-68262523D01*
X114196761Y-68357761D01*
X114149142Y-68405380D01*
G04 #@! TO.C,J2*
X112950666Y-92035380D02*
X112950666Y-92749666D01*
X112903047Y-92892523D01*
X112807809Y-92987761D01*
X112664952Y-93035380D01*
X112569714Y-93035380D01*
X113379238Y-92130619D02*
X113426857Y-92083000D01*
X113522095Y-92035380D01*
X113760190Y-92035380D01*
X113855428Y-92083000D01*
X113903047Y-92130619D01*
X113950666Y-92225857D01*
X113950666Y-92321095D01*
X113903047Y-92463952D01*
X113331619Y-93035380D01*
X113950666Y-93035380D01*
G04 #@! TO.C,C1*
X107893142Y-96305666D02*
X107940761Y-96353285D01*
X107988380Y-96496142D01*
X107988380Y-96591380D01*
X107940761Y-96734238D01*
X107845523Y-96829476D01*
X107750285Y-96877095D01*
X107559809Y-96924714D01*
X107416952Y-96924714D01*
X107226476Y-96877095D01*
X107131238Y-96829476D01*
X107036000Y-96734238D01*
X106988380Y-96591380D01*
X106988380Y-96496142D01*
X107036000Y-96353285D01*
X107083619Y-96305666D01*
X107988380Y-95353285D02*
X107988380Y-95924714D01*
X107988380Y-95639000D02*
X106988380Y-95639000D01*
X107131238Y-95734238D01*
X107226476Y-95829476D01*
X107274095Y-95924714D01*
G04 #@! TO.C,C2*
X100687142Y-102147666D02*
X100734761Y-102195285D01*
X100782380Y-102338142D01*
X100782380Y-102433380D01*
X100734761Y-102576238D01*
X100639523Y-102671476D01*
X100544285Y-102719095D01*
X100353809Y-102766714D01*
X100210952Y-102766714D01*
X100020476Y-102719095D01*
X99925238Y-102671476D01*
X99830000Y-102576238D01*
X99782380Y-102433380D01*
X99782380Y-102338142D01*
X99830000Y-102195285D01*
X99877619Y-102147666D01*
X99877619Y-101766714D02*
X99830000Y-101719095D01*
X99782380Y-101623857D01*
X99782380Y-101385761D01*
X99830000Y-101290523D01*
X99877619Y-101242904D01*
X99972857Y-101195285D01*
X100068095Y-101195285D01*
X100210952Y-101242904D01*
X100782380Y-101814333D01*
X100782380Y-101195285D01*
G04 #@! TO.C,Q1*
X103584619Y-94964238D02*
X103537000Y-95059476D01*
X103441761Y-95154714D01*
X103298904Y-95297571D01*
X103251285Y-95392809D01*
X103251285Y-95488047D01*
X103489380Y-95440428D02*
X103441761Y-95535666D01*
X103346523Y-95630904D01*
X103156047Y-95678523D01*
X102822714Y-95678523D01*
X102632238Y-95630904D01*
X102537000Y-95535666D01*
X102489380Y-95440428D01*
X102489380Y-95249952D01*
X102537000Y-95154714D01*
X102632238Y-95059476D01*
X102822714Y-95011857D01*
X103156047Y-95011857D01*
X103346523Y-95059476D01*
X103441761Y-95154714D01*
X103489380Y-95249952D01*
X103489380Y-95440428D01*
X103489380Y-94059476D02*
X103489380Y-94630904D01*
X103489380Y-94345190D02*
X102489380Y-94345190D01*
X102632238Y-94440428D01*
X102727476Y-94535666D01*
X102775095Y-94630904D01*
G04 #@! TO.C,R1*
X87828380Y-74715666D02*
X87352190Y-75049000D01*
X87828380Y-75287095D02*
X86828380Y-75287095D01*
X86828380Y-74906142D01*
X86876000Y-74810904D01*
X86923619Y-74763285D01*
X87018857Y-74715666D01*
X87161714Y-74715666D01*
X87256952Y-74763285D01*
X87304571Y-74810904D01*
X87352190Y-74906142D01*
X87352190Y-75287095D01*
X87828380Y-73763285D02*
X87828380Y-74334714D01*
X87828380Y-74049000D02*
X86828380Y-74049000D01*
X86971238Y-74144238D01*
X87066476Y-74239476D01*
X87114095Y-74334714D01*
G04 #@! TO.C,R2*
X92306380Y-74690166D02*
X91830190Y-75023500D01*
X92306380Y-75261595D02*
X91306380Y-75261595D01*
X91306380Y-74880642D01*
X91354000Y-74785404D01*
X91401619Y-74737785D01*
X91496857Y-74690166D01*
X91639714Y-74690166D01*
X91734952Y-74737785D01*
X91782571Y-74785404D01*
X91830190Y-74880642D01*
X91830190Y-75261595D01*
X91401619Y-74309214D02*
X91354000Y-74261595D01*
X91306380Y-74166357D01*
X91306380Y-73928261D01*
X91354000Y-73833023D01*
X91401619Y-73785404D01*
X91496857Y-73737785D01*
X91592095Y-73737785D01*
X91734952Y-73785404D01*
X92306380Y-74356833D01*
X92306380Y-73737785D01*
G04 #@! TO.C,R12*
X89527142Y-94178380D02*
X89193809Y-93702190D01*
X88955714Y-94178380D02*
X88955714Y-93178380D01*
X89336666Y-93178380D01*
X89431904Y-93226000D01*
X89479523Y-93273619D01*
X89527142Y-93368857D01*
X89527142Y-93511714D01*
X89479523Y-93606952D01*
X89431904Y-93654571D01*
X89336666Y-93702190D01*
X88955714Y-93702190D01*
X90479523Y-94178380D02*
X89908095Y-94178380D01*
X90193809Y-94178380D02*
X90193809Y-93178380D01*
X90098571Y-93321238D01*
X90003333Y-93416476D01*
X89908095Y-93464095D01*
X90860476Y-93273619D02*
X90908095Y-93226000D01*
X91003333Y-93178380D01*
X91241428Y-93178380D01*
X91336666Y-93226000D01*
X91384285Y-93273619D01*
X91431904Y-93368857D01*
X91431904Y-93464095D01*
X91384285Y-93606952D01*
X90812857Y-94178380D01*
X91431904Y-94178380D01*
G04 #@! TO.C,U3*
X106680095Y-99274380D02*
X106680095Y-100083904D01*
X106727714Y-100179142D01*
X106775333Y-100226761D01*
X106870571Y-100274380D01*
X107061047Y-100274380D01*
X107156285Y-100226761D01*
X107203904Y-100179142D01*
X107251523Y-100083904D01*
X107251523Y-99274380D01*
X107632476Y-99274380D02*
X108251523Y-99274380D01*
X107918190Y-99655333D01*
X108061047Y-99655333D01*
X108156285Y-99702952D01*
X108203904Y-99750571D01*
X108251523Y-99845809D01*
X108251523Y-100083904D01*
X108203904Y-100179142D01*
X108156285Y-100226761D01*
X108061047Y-100274380D01*
X107775333Y-100274380D01*
X107680095Y-100226761D01*
X107632476Y-100179142D01*
G04 #@! TO.C,J1*
X88566666Y-76033380D02*
X88566666Y-76747666D01*
X88519047Y-76890523D01*
X88423809Y-76985761D01*
X88280952Y-77033380D01*
X88185714Y-77033380D01*
X89566666Y-77033380D02*
X88995238Y-77033380D01*
X89280952Y-77033380D02*
X89280952Y-76033380D01*
X89185714Y-76176238D01*
X89090476Y-76271476D01*
X88995238Y-76319095D01*
G04 #@! TO.C,J4*
X98599666Y-110450380D02*
X98599666Y-111164666D01*
X98552047Y-111307523D01*
X98456809Y-111402761D01*
X98313952Y-111450380D01*
X98218714Y-111450380D01*
X99504428Y-110783714D02*
X99504428Y-111450380D01*
X99266333Y-110402761D02*
X99028238Y-111117047D01*
X99647285Y-111117047D01*
G04 #@! TO.C,J5*
X93646666Y-110196380D02*
X93646666Y-110910666D01*
X93599047Y-111053523D01*
X93503809Y-111148761D01*
X93360952Y-111196380D01*
X93265714Y-111196380D01*
X94599047Y-110196380D02*
X94122857Y-110196380D01*
X94075238Y-110672571D01*
X94122857Y-110624952D01*
X94218095Y-110577333D01*
X94456190Y-110577333D01*
X94551428Y-110624952D01*
X94599047Y-110672571D01*
X94646666Y-110767809D01*
X94646666Y-111005904D01*
X94599047Y-111101142D01*
X94551428Y-111148761D01*
X94456190Y-111196380D01*
X94218095Y-111196380D01*
X94122857Y-111148761D01*
X94075238Y-111101142D01*
G04 #@! TO.C,J6*
X102663666Y-110323380D02*
X102663666Y-111037666D01*
X102616047Y-111180523D01*
X102520809Y-111275761D01*
X102377952Y-111323380D01*
X102282714Y-111323380D01*
X103568428Y-110323380D02*
X103377952Y-110323380D01*
X103282714Y-110371000D01*
X103235095Y-110418619D01*
X103139857Y-110561476D01*
X103092238Y-110751952D01*
X103092238Y-111132904D01*
X103139857Y-111228142D01*
X103187476Y-111275761D01*
X103282714Y-111323380D01*
X103473190Y-111323380D01*
X103568428Y-111275761D01*
X103616047Y-111228142D01*
X103663666Y-111132904D01*
X103663666Y-110894809D01*
X103616047Y-110799571D01*
X103568428Y-110751952D01*
X103473190Y-110704333D01*
X103282714Y-110704333D01*
X103187476Y-110751952D01*
X103139857Y-110799571D01*
X103092238Y-110894809D01*
G04 #@! TO.C,J7*
X89455666Y-110069380D02*
X89455666Y-110783666D01*
X89408047Y-110926523D01*
X89312809Y-111021761D01*
X89169952Y-111069380D01*
X89074714Y-111069380D01*
X89836619Y-110069380D02*
X90503285Y-110069380D01*
X90074714Y-111069380D01*
G04 #@! TO.C,C6*
X90003333Y-97893142D02*
X89955714Y-97940761D01*
X89812857Y-97988380D01*
X89717619Y-97988380D01*
X89574761Y-97940761D01*
X89479523Y-97845523D01*
X89431904Y-97750285D01*
X89384285Y-97559809D01*
X89384285Y-97416952D01*
X89431904Y-97226476D01*
X89479523Y-97131238D01*
X89574761Y-97036000D01*
X89717619Y-96988380D01*
X89812857Y-96988380D01*
X89955714Y-97036000D01*
X90003333Y-97083619D01*
X90860476Y-96988380D02*
X90670000Y-96988380D01*
X90574761Y-97036000D01*
X90527142Y-97083619D01*
X90431904Y-97226476D01*
X90384285Y-97416952D01*
X90384285Y-97797904D01*
X90431904Y-97893142D01*
X90479523Y-97940761D01*
X90574761Y-97988380D01*
X90765238Y-97988380D01*
X90860476Y-97940761D01*
X90908095Y-97893142D01*
X90955714Y-97797904D01*
X90955714Y-97559809D01*
X90908095Y-97464571D01*
X90860476Y-97416952D01*
X90765238Y-97369333D01*
X90574761Y-97369333D01*
X90479523Y-97416952D01*
X90431904Y-97464571D01*
X90384285Y-97559809D01*
G04 #@! TO.C,C4*
X114641333Y-97385142D02*
X114593714Y-97432761D01*
X114450857Y-97480380D01*
X114355619Y-97480380D01*
X114212761Y-97432761D01*
X114117523Y-97337523D01*
X114069904Y-97242285D01*
X114022285Y-97051809D01*
X114022285Y-96908952D01*
X114069904Y-96718476D01*
X114117523Y-96623238D01*
X114212761Y-96528000D01*
X114355619Y-96480380D01*
X114450857Y-96480380D01*
X114593714Y-96528000D01*
X114641333Y-96575619D01*
X115498476Y-96813714D02*
X115498476Y-97480380D01*
X115260380Y-96432761D02*
X115022285Y-97147047D01*
X115641333Y-97147047D01*
G04 #@! TO.C,C5*
X114641333Y-94972142D02*
X114593714Y-95019761D01*
X114450857Y-95067380D01*
X114355619Y-95067380D01*
X114212761Y-95019761D01*
X114117523Y-94924523D01*
X114069904Y-94829285D01*
X114022285Y-94638809D01*
X114022285Y-94495952D01*
X114069904Y-94305476D01*
X114117523Y-94210238D01*
X114212761Y-94115000D01*
X114355619Y-94067380D01*
X114450857Y-94067380D01*
X114593714Y-94115000D01*
X114641333Y-94162619D01*
X115546095Y-94067380D02*
X115069904Y-94067380D01*
X115022285Y-94543571D01*
X115069904Y-94495952D01*
X115165142Y-94448333D01*
X115403238Y-94448333D01*
X115498476Y-94495952D01*
X115546095Y-94543571D01*
X115593714Y-94638809D01*
X115593714Y-94876904D01*
X115546095Y-94972142D01*
X115498476Y-95019761D01*
X115403238Y-95067380D01*
X115165142Y-95067380D01*
X115069904Y-95019761D01*
X115022285Y-94972142D01*
G04 #@! TO.C,REF\002A\002A*
X92519666Y-71318380D02*
X92186333Y-70842190D01*
X91948238Y-71318380D02*
X91948238Y-70318380D01*
X92329190Y-70318380D01*
X92424428Y-70366000D01*
X92472047Y-70413619D01*
X92519666Y-70508857D01*
X92519666Y-70651714D01*
X92472047Y-70746952D01*
X92424428Y-70794571D01*
X92329190Y-70842190D01*
X91948238Y-70842190D01*
X92948238Y-70794571D02*
X93281571Y-70794571D01*
X93424428Y-71318380D02*
X92948238Y-71318380D01*
X92948238Y-70318380D01*
X93424428Y-70318380D01*
X94186333Y-70794571D02*
X93853000Y-70794571D01*
X93853000Y-71318380D02*
X93853000Y-70318380D01*
X94329190Y-70318380D01*
X94853000Y-70318380D02*
X94853000Y-70556476D01*
X94614904Y-70461238D02*
X94853000Y-70556476D01*
X95091095Y-70461238D01*
X94710142Y-70746952D02*
X94853000Y-70556476D01*
X94995857Y-70746952D01*
X95614904Y-70318380D02*
X95614904Y-70556476D01*
X95376809Y-70461238D02*
X95614904Y-70556476D01*
X95853000Y-70461238D01*
X95472047Y-70746952D02*
X95614904Y-70556476D01*
X95757761Y-70746952D01*
G04 #@! TO.C,U2*
D14*
X96265744Y-95210129D02*
X96265744Y-96020025D01*
X96313385Y-96115307D01*
X96361026Y-96162948D01*
X96456308Y-96210589D01*
X96646872Y-96210589D01*
X96742154Y-96162948D01*
X96789795Y-96115307D01*
X96837436Y-96020025D01*
X96837436Y-95210129D01*
X97266204Y-95305410D02*
X97313845Y-95257770D01*
X97409127Y-95210129D01*
X97647332Y-95210129D01*
X97742614Y-95257770D01*
X97790255Y-95305410D01*
X97837896Y-95400692D01*
X97837896Y-95495974D01*
X97790255Y-95638897D01*
X97218563Y-96210589D01*
X97837896Y-96210589D01*
X97167692Y-98068413D02*
X97310780Y-98116109D01*
X97549258Y-98116109D01*
X97644650Y-98068413D01*
X97692345Y-98020717D01*
X97740041Y-97925326D01*
X97740041Y-97829935D01*
X97692345Y-97734543D01*
X97644650Y-97686847D01*
X97549258Y-97639152D01*
X97358475Y-97591456D01*
X97263084Y-97543760D01*
X97215388Y-97496065D01*
X97167692Y-97400673D01*
X97167692Y-97305282D01*
X97215388Y-97209890D01*
X97263084Y-97162195D01*
X97358475Y-97114499D01*
X97596954Y-97114499D01*
X97740041Y-97162195D01*
X98169302Y-98116109D02*
X98169302Y-97114499D01*
X98169302Y-97591456D02*
X98741651Y-97591456D01*
X98741651Y-98116109D02*
X98741651Y-97114499D01*
X99075521Y-97114499D02*
X99647870Y-97114499D01*
X99361695Y-98116109D02*
X99361695Y-97114499D01*
X99934044Y-97209890D02*
X99981740Y-97162195D01*
X100077131Y-97114499D01*
X100315610Y-97114499D01*
X100411001Y-97162195D01*
X100458697Y-97209890D01*
X100506392Y-97305282D01*
X100506392Y-97400673D01*
X100458697Y-97543760D01*
X99886348Y-98116109D01*
X100506392Y-98116109D01*
X101460307Y-98116109D02*
X100887958Y-98116109D01*
X101174132Y-98116109D02*
X101174132Y-97114499D01*
X101078741Y-97257586D01*
X100983350Y-97352977D01*
X100887958Y-97400673D01*
G04 #@! TD*
M02*
